<svg xmlns="http://www.w3.org/2000/svg" width="540" height="500" fill="none"><path fill="#FAFAFA" d="M107.115 418.069c96.72 62.575 253.594 62.575 350.313 0 96.72-62.575 96.72-164.016 0-226.578-96.719-62.562-253.593-62.575-350.313 0-96.719 62.575-96.754 164.016 0 226.578Z"/><path fill="#02897A" d="M485.336 186.905c.53-7.262 5.638-19.64 13.198-28.426 7.561-8.786 19.663-13.076 27.129-9.522 6.959 3.32 5.426 13.528-3.751 19.562-9.176 6.034-22.835 13.45-27.518 24.885l-9.058 13.722v-20.221Z"/><path fill="#000" d="M485.336 186.905c.53-7.262 5.638-19.64 13.198-28.426 7.561-8.786 19.663-13.076 27.129-9.522 6.959 3.32 5.426 13.528-3.751 19.562-9.176 6.034-22.835 13.45-27.518 24.885l-9.058 13.722v-20.221Z" opacity=".2"/><path stroke="#fff" stroke-linecap="round" stroke-miterlimit="10" d="M522.773 152.316c-8.669 1.809-34.076 19.73-37.402 46.786"/><path fill="#02897A" d="M486.362 219.505c1.332-3.877 7.136-11.074 15.486-14.601 8.351-3.527 14.65-6.68 17.693-12.365 3.043-5.685-2.253-11.267-10.686-10.866-8.434.4-22.482 10.078-23.472 25.453l.979 12.379Z"/><path stroke="#fff" stroke-linecap="round" stroke-miterlimit="10" d="M513.148 186.272c-7.289.788-25.005 12.559-27.388 25.738"/><path fill="#02897A" d="M50.688 256.405c-.36-10.265-2.444-20.369-6.146-29.808-6.215-16.138-18.789-24.678-25.489-25.841-6.7-1.163-13.623 7.752-5.095 18.347 8.528 10.595 24.876 24.782 29.57 46.244l7.679 14.652-.52-23.594Z"/><path fill="#000" d="M50.688 256.405c-.36-10.265-2.444-20.369-6.146-29.808-6.215-16.138-18.789-24.678-25.489-25.841-6.7-1.163-13.623 7.752-5.095 18.347 8.528 10.595 24.876 24.782 29.57 46.244l7.679 14.652-.52-23.594Z" opacity=".2"/><path stroke="#fff" stroke-linecap="round" stroke-linejoin="round" d="M19.054 205.679c13.753 8.967 29.688 32.496 31.917 63.764"/><path fill="#02897A" d="M49.638 295.025c-1.899-8.334-6.865-16.461-16.784-24.627-9.92-8.166-23.177-15.182-22.092-23.515 1.085-8.334 11.134-7.753 18.494-4.07 7.36 3.682 20.123 18.838 21.95 37.159l-1.568 15.053Z"/><path stroke="#fff" stroke-linecap="round" stroke-linejoin="round" d="M17.72 244.273c9.555 2.584 30.054 23.128 33.027 40.623"/><path fill="#263238" d="M52.351 300.168a6.354 6.354 0 0 1-1.923-2.228 7.032 7.032 0 0 1-.79-2.941v-186.51a7.06 7.06 0 0 1 .793-2.94 6.389 6.389 0 0 1 1.92-2.229l60.827-38.464a4.79 4.79 0 0 1 2.619-.849 4.764 4.764 0 0 1 2.643.752 5.383 5.383 0 0 1 1.912 2.135c.449.89.668 1.895.635 2.91V82.26c0 1.899 1.179 2.674 2.724 1.718l76.114-48.13a4.786 4.786 0 0 1 2.615-.847 4.765 4.765 0 0 1 2.641.748 5.394 5.394 0 0 1 1.913 2.13c.449.887.67 1.891.639 2.905V327.47l-56.097 35.454-99.185-62.755Z"/><path fill="#455A64" d="M205.085 35.758a5.373 5.373 0 0 0-2.642-.64 5.404 5.404 0 0 0-2.619.743l-76.113 48.13c-1.51.956-2.725.18-2.725-1.718V69.817a6.02 6.02 0 0 0-.634-2.91 5.39 5.39 0 0 0-1.912-2.135 4.766 4.766 0 0 0-2.643-.752 4.788 4.788 0 0 0-2.619.848l-60.827 38.465a6.05 6.05 0 0 0-1.923 2.223l34.89 22.068 122.315-77.382v-9.445a6.857 6.857 0 0 0-.724-2.853 6.203 6.203 0 0 0-1.824-2.186Z"/><path fill="#37474F" d="m204.92 39.079-81.209 51.36c-1.51.956-2.725.18-2.725-1.719V69.817c0-1.9-1.179-2.674-2.712-1.718l-60.828 38.465a6.366 6.366 0 0 0-1.921 2.228 7.044 7.044 0 0 0-.791 2.94V291.86a7.015 7.015 0 0 0 .794 2.943 6.34 6.34 0 0 0 1.93 2.225l99.208 62.743 50.967-32.224V40.797c0-1.9-1.215-2.661-2.713-1.718Z"/><path fill="#263238" d="M55.536 294.728a5.83 5.83 0 0 0 1.922 2.223l99.209 62.743 50.966-32.225V198.533L55.536 294.728Z"/><path fill="#F5F5F5" d="m67.85 335.79-.743-.465a5.103 5.103 0 0 1-1.54-1.776 5.64 5.64 0 0 1-.642-2.346V156.192c.04-.827.258-1.632.638-2.349a5.068 5.068 0 0 1 1.544-1.773L230.94 48.446a4.464 4.464 0 0 1 2.176-.571c.757 0 1.502.196 2.176.571l.743.478a5.065 5.065 0 0 1 1.545 1.773 5.61 5.61 0 0 1 .638 2.349v174.972a5.655 5.655 0 0 1-.642 2.347 5.096 5.096 0 0 1-1.541 1.775L72.202 335.79a4.47 4.47 0 0 1-2.176.571 4.47 4.47 0 0 1-2.176-.571Z"/><path fill="#E0E0E0" d="m75.116 159.849-9.554-6.047a5.289 5.289 0 0 0-.637 2.352v175.011c.042.826.262 1.63.641 2.346a5.1 5.1 0 0 0 1.54 1.775l.744.466a4.47 4.47 0 0 0 2.176.571 4.47 4.47 0 0 0 2.176-.571l2.914-1.848V159.849Z"/><path fill="#EBEBEB" d="M70.032 334.382V159.371a5.63 5.63 0 0 1 .635-2.345 5.088 5.088 0 0 1 1.535-1.777L236.035 51.625c1.18-.75 2.182-.142 2.182 1.382v175.011a5.635 5.635 0 0 1-.641 2.347 5.096 5.096 0 0 1-1.541 1.775L72.202 335.79c-1.203.724-2.17.116-2.17-1.408Z"/><path fill="#fff" d="m82.936 161.361 142.366-90.032c1.498-.956 2.713-.18 2.713 1.719V207.99a7.044 7.044 0 0 1-.79 2.941 6.365 6.365 0 0 1-1.923 2.228L82.936 303.178c-1.498.956-2.713.181-2.713-1.718V166.529a7.06 7.06 0 0 1 .792-2.94 6.378 6.378 0 0 1 1.92-2.228Z"/><path fill="#FFB900" d="M106.467 154.628c8.87-5.607 16.053-1.059 16.053 10.156s-7.183 24.847-16.053 30.454c-8.87 5.608-16.053 1.073-16.053-10.142 0-11.216 7.183-24.86 16.053-30.468ZM121.34 195.303a7.807 7.807 0 0 1 2.268-2.786 6.933 6.933 0 0 1 3.174-1.356 6.692 6.692 0 0 1 3.391.37 7.26 7.26 0 0 1 2.868 2.015l18.495 21.099 35.149-94.463c.516-1.385 1.376-2.584 2.483-3.46a6.914 6.914 0 0 1 3.778-1.498 6.775 6.775 0 0 1 3.929.919c1.206.703 2.207 1.762 2.891 3.057l28.225 53.544v35.247a7.03 7.03 0 0 1-.79 2.941 6.344 6.344 0 0 1-1.923 2.228L82.936 303.178c-1.498.956-2.713.181-2.713-1.718v-22.353l41.117-83.804Z"/><path fill="#F5F5F5" d="m98.458 355.171-.755-.478a5.094 5.094 0 0 1-1.535-1.776 5.638 5.638 0 0 1-.635-2.346V175.496a5.63 5.63 0 0 1 .635-2.345 5.097 5.097 0 0 1 1.535-1.777L261.548 67.763a4.39 4.39 0 0 1 2.17-.58c.756 0 1.5.2 2.171.58l.754.465a5.08 5.08 0 0 1 1.535 1.777c.378.716.595 1.52.636 2.345V247.36a5.542 5.542 0 0 1-.627 2.351 4.997 4.997 0 0 1-1.544 1.771L102.775 355.171a4.385 4.385 0 0 1-2.159.573c-.75 0-1.49-.196-2.158-.573Z"/><path fill="#E0E0E0" d="m105.7 179.204-9.554-6.047a5.273 5.273 0 0 0-.637 2.339v175.011c.04.825.258 1.629.635 2.345a5.085 5.085 0 0 0 1.535 1.776l.755.478c.67.381 1.415.58 2.17.58.756 0 1.5-.199 2.171-.58l2.925-1.847V179.204Z"/><path fill="#EBEBEB" d="M100.605 353.737V178.726a5.64 5.64 0 0 1 .636-2.344 5.116 5.116 0 0 1 1.534-1.778L266.62 70.98c1.179-.762 2.17-.142 2.17 1.37V247.36a5.556 5.556 0 0 1-.626 2.351 5.007 5.007 0 0 1-1.544 1.771L102.775 355.171c-1.191.698-2.17.078-2.17-1.434Z"/><path fill="#fff" d="m113.52 180.742 142.366-90.045c1.498-.943 2.713-.168 2.713 1.719v134.918a7.03 7.03 0 0 1-.791 2.94 6.36 6.36 0 0 1-1.922 2.228L113.52 322.547c-1.51.943-2.724.18-2.724-1.719V185.91a7.025 7.025 0 0 1 .795-2.943 6.341 6.341 0 0 1 1.929-2.225Z"/><path fill="#11B5E4" d="M137.051 173.983c8.858-5.607 16.053-1.059 16.053 10.156s-7.195 24.847-16.053 30.454c-8.858 5.608-16.053 1.06-16.053-10.155 0-11.216 7.183-24.847 16.053-30.455ZM151.925 214.659a7.798 7.798 0 0 1 2.263-2.787 6.941 6.941 0 0 1 3.172-1.356 6.701 6.701 0 0 1 3.388.37 7.255 7.255 0 0 1 2.866 2.016l18.589 21.099 35.137-94.463c.514-1.389 1.375-2.591 2.483-3.47a6.914 6.914 0 0 1 3.783-1.501 6.772 6.772 0 0 1 3.935.922c1.207.706 2.209 1.768 2.891 3.067l28.214 53.543v35.235a7.026 7.026 0 0 1-.791 2.94 6.36 6.36 0 0 1-1.922 2.228l-142.366 90.045c-1.51.943-2.724.181-2.724-1.719v-22.353l41.082-83.816Z"/><path fill="#F5F5F5" d="m129.007 374.435-.743-.465a5.087 5.087 0 0 1-1.535-1.777 5.623 5.623 0 0 1-.635-2.345V194.837c.04-.827.258-1.632.638-2.348a5.042 5.042 0 0 1 1.544-1.773L292.109 87.091a4.464 4.464 0 0 1 2.176-.571c.756 0 1.502.196 2.176.571l.743.479a5.065 5.065 0 0 1 1.545 1.773c.379.716.598 1.521.637 2.348v175.011a5.635 5.635 0 0 1-.641 2.347 5.096 5.096 0 0 1-1.541 1.775L133.371 374.435a4.462 4.462 0 0 1-2.182.575 4.465 4.465 0 0 1-2.182-.575Z"/><path fill="#E0E0E0" d="m136.285 198.534-9.519-6.047a5.272 5.272 0 0 0-.637 2.351v175.011c.041.826.258 1.629.635 2.346a5.093 5.093 0 0 0 1.535 1.776l.743.465c.675.376 1.42.572 2.177.572a4.46 4.46 0 0 0 2.176-.572l2.925-1.847-.035-174.055Z"/><path fill="#EBEBEB" d="M131.189 373.066V198.055a5.642 5.642 0 0 1 .635-2.345 5.094 5.094 0 0 1 1.535-1.776L297.193 90.296c1.179-.749 2.182-.142 2.182 1.383v175.024a5.65 5.65 0 0 1-.642 2.346 5.107 5.107 0 0 1-1.54 1.776L133.359 374.436c-1.203.762-2.17.116-2.17-1.37Z"/><path fill="#fff" d="m144.093 200.033 142.366-90.032c1.498-.956 2.713-.181 2.713 1.719v134.918a7.06 7.06 0 0 1-.791 2.94 6.38 6.38 0 0 1-1.922 2.228l-142.366 90.057c-1.498.957-2.713.181-2.713-1.718V205.188a7.055 7.055 0 0 1 .795-2.932 6.371 6.371 0 0 1 1.918-2.223Z"/><path fill="#F03E3D" d="M167.624 193.314c8.87-5.608 16.053-1.06 16.053 10.155s-7.183 24.847-16.053 30.454c-8.87 5.608-16.088 1.086-16.088-10.142 0-11.229 7.218-24.86 16.088-30.467ZM182.498 233.988a7.797 7.797 0 0 1 2.267-2.787 6.949 6.949 0 0 1 3.174-1.356 6.714 6.714 0 0 1 3.391.37 7.262 7.262 0 0 1 2.868 2.015l18.53 21.1 35.149-94.463c.516-1.385 1.377-2.584 2.483-3.461a6.919 6.919 0 0 1 3.778-1.497 6.778 6.778 0 0 1 3.93.919c1.205.703 2.207 1.762 2.89 3.057l28.226 53.543v35.209a7.096 7.096 0 0 1-.8 2.94 6.408 6.408 0 0 1-1.925 2.228l-142.366 90.058c-1.498.956-2.713.181-2.713-1.719v-22.353l41.118-83.803Z"/><path fill="#263238" d="m156.667 359.693 15.286-9.665v19.343l-15.286-9.678Z"/><path fill="#263238" d="M171.953 224.53v141.404c0 1.9-1.18 2.662-2.713 1.719l-12.574-7.959-5.13 3.23 22.764 14.393a5.55 5.55 0 0 0 2.719.718c.945 0 1.877-.246 2.719-.718l157.688-99.67a6.39 6.39 0 0 0 1.927-2.227 7.067 7.067 0 0 0 .797-2.941V124.614a6.043 6.043 0 0 0-.64-2.909 5.402 5.402 0 0 0-1.915-2.134 4.782 4.782 0 0 0-2.644-.751 4.809 4.809 0 0 0-2.621.845l-157.652 99.71a6.335 6.335 0 0 0-1.927 2.219 7.027 7.027 0 0 0-.798 2.936Z"/><path fill="#455A64" d="m182.203 227.54 158.053-99.915v-3.011a6.043 6.043 0 0 0-.64-2.909 5.402 5.402 0 0 0-1.915-2.134 4.782 4.782 0 0 0-2.644-.751 4.809 4.809 0 0 0-2.621.845l-157.759 99.71a5.823 5.823 0 0 0-1.922 2.222l9.448 5.943Z"/><path fill="#37474F" d="m337.426 122.895-157.653 99.709a6.38 6.38 0 0 0-1.927 2.227 7.053 7.053 0 0 0-.798 2.941v147.826c0 1.9 1.18 2.675 2.725 1.719l157.653-99.671a6.379 6.379 0 0 0 1.927-2.226 7.071 7.071 0 0 0 .797-2.942V124.613c0-1.899-1.226-2.674-2.724-1.718Z"/><path fill="#FAFAFA" d="M219.027 314.174a1.565 1.565 0 0 1-.861-.246 2.235 2.235 0 0 1-.73-.912 2.482 2.482 0 0 1-.202-1.194v-71.865a6.325 6.325 0 0 1 .716-2.665 5.714 5.714 0 0 1 1.749-2.012l77.211-48.828a1.808 1.808 0 0 1 1.04-.442c.38-.029.759.066 1.088.275.329.209.594.521.759.897.165.375.224.796.168 1.209v71.865a6.325 6.325 0 0 1-.716 2.665 5.722 5.722 0 0 1-1.749 2.012l-77.211 48.892a2.378 2.378 0 0 1-1.262.349Zm79.145-126.843a1.226 1.226 0 0 0-.672.245l-77.211 48.815a4.514 4.514 0 0 0-1.317 1.543 4.99 4.99 0 0 0-.558 2.023v71.865c-.022.182-.002.367.058.538.06.172.157.324.284.444a.9.9 0 0 0 .492.051.944.944 0 0 0 .451-.219l77.211-48.827a4.464 4.464 0 0 0 1.318-1.536 4.925 4.925 0 0 0 .557-2.017v-71.865a1.186 1.186 0 0 0-.057-.539 1.083 1.083 0 0 0-.285-.443.48.48 0 0 0-.271-.078Z"/><path fill="#FAFAFA" d="M231.471 252.283a3.564 3.564 0 0 1-1.923-.542 5.322 5.322 0 0 1-1.683-2.176 5.885 5.885 0 0 1-.44-2.812 16.98 16.98 0 0 1 1.918-7.049c1.135-2.152 2.717-3.982 4.616-5.342a4.178 4.178 0 0 1 2.421-1.06 4.075 4.075 0 0 1 2.541.636 4.66 4.66 0 0 1 1.76 2.105c.378.882.502 1.868.355 2.829a16.94 16.94 0 0 1-1.914 7.051c-1.136 2.153-2.718 3.982-4.62 5.34a5.928 5.928 0 0 1-3.031 1.02Zm5.567-17.649a4.797 4.797 0 0 0-2.489.852c-1.721 1.24-3.151 2.906-4.176 4.863a15.41 15.41 0 0 0-1.721 6.404 3.858 3.858 0 0 0 .184 2.21 3.45 3.45 0 0 0 1.349 1.655c.6.379 1.295.537 1.983.451a3.114 3.114 0 0 0 1.839-.93c1.72-1.241 3.15-2.907 4.174-4.864a15.408 15.408 0 0 0 1.723-6.403 4.558 4.558 0 0 0-.287-2.166 4.15 4.15 0 0 0-1.246-1.71 2.344 2.344 0 0 0-1.333-.362ZM217.824 308.772a.606.606 0 0 1-.236-.116.592.592 0 0 1-.18-.155.66.66 0 0 1-.11-.22.703.703 0 0 1 .043-.491l22.858-49.163a5.232 5.232 0 0 1 1.456-1.883 4.655 4.655 0 0 1 2.074-.962 4.46 4.46 0 0 1 2.247.166c.727.247 1.39.678 1.937 1.258l22.6 23.826a.678.678 0 0 1 0 .904.572.572 0 0 1-.419.191.572.572 0 0 1-.419-.191l-22.599-23.761a3.643 3.643 0 0 0-1.467-.945 3.38 3.38 0 0 0-1.698-.124 3.524 3.524 0 0 0-1.568.724 3.98 3.98 0 0 0-1.106 1.417l-22.858 49.177a.64.64 0 0 1-.232.261.557.557 0 0 1-.323.087Z"/><path fill="#FAFAFA" d="M258.599 270.088a.518.518 0 0 1-.235 0 .619.619 0 0 1-.31-.351.698.698 0 0 1 .003-.489l17.692-44.809a5.148 5.148 0 0 1 1.457-2.067 4.51 4.51 0 0 1 2.194-1.022 4.33 4.33 0 0 1 2.37.282 4.75 4.75 0 0 1 1.941 1.515l16.089 21.307c.05.064.089.138.112.218a.679.679 0 0 1-.038.491.562.562 0 0 1-.9.182l-16.089-21.306a3.571 3.571 0 0 0-1.45-1.149 3.26 3.26 0 0 0-1.778-.224c-.6.094-1.169.354-1.65.758a3.843 3.843 0 0 0-1.102 1.545l-17.692 44.796a.607.607 0 0 1-.26.268.545.545 0 0 1-.354.055Z"/><path fill="#BA68C8" d="M316.501 155.675c-3.644 0-6.086-2.39-6.086-5.944l.319-22.404c0-6.112 0-15.389 6.228-19.381a7.974 7.974 0 0 1 4.293-1.446 7.9 7.9 0 0 1 4.366 1.156c1.334.807 2.446 1.993 3.217 3.433a9.99 9.99 0 0 1 1.169 4.751c0 1.796-.059 3.993-.154 6.538a2.034 2.034 0 0 1-.155.741 1.91 1.91 0 0 1-.406.616 1.735 1.735 0 0 1-.592.394 1.66 1.66 0 0 1-1.358-.072 1.8 1.8 0 0 1-.556-.449 1.985 1.985 0 0 1-.357-.649 2.128 2.128 0 0 1-.102-.749c.082-2.442.141-4.651.141-6.37a5.828 5.828 0 0 0-.693-2.815 5.18 5.18 0 0 0-1.923-2.016 4.605 4.605 0 0 0-2.598-.634 4.673 4.673 0 0 0-2.523.93c-4.117 2.584-4.459 9.045-4.459 15.996l-.318 22.43c0 1.68 1.38 2.042 2.547 2.042 1.925-.05 3.757-.918 5.108-2.42 1.351-1.502 2.117-3.521 2.135-5.63l-.13-8.85c0-.514.186-1.007.518-1.371a1.697 1.697 0 0 1 1.251-.568c.469 0 .919.205 1.251.568.332.364.518.857.518 1.371l.13 8.863c.01 3.147-1.119 6.17-3.14 8.408-2.02 2.237-4.768 3.507-7.641 3.531Z"/><path fill="#455A64" d="m343.064 293.384-123.058 77.834a5.097 5.097 0 0 0-1.54 1.776 5.646 5.646 0 0 0-.642 2.346v.943a5.66 5.66 0 0 0 .64 2.353 5.123 5.123 0 0 0 1.542 1.782l102.676 64.939a4.46 4.46 0 0 0 2.176.572c.757 0 1.502-.196 2.176-.572l123.058-77.834a5.094 5.094 0 0 0 1.54-1.775 5.64 5.64 0 0 0 .642-2.347v-.956a5.635 5.635 0 0 0-.642-2.346 5.097 5.097 0 0 0-1.54-1.776l-102.676-64.939a4.46 4.46 0 0 0-2.176-.572 4.46 4.46 0 0 0-2.176.572Z"/><path fill="#263238" d="M217.824 375.34v.943a5.66 5.66 0 0 0 .64 2.353 5.123 5.123 0 0 0 1.542 1.782l102.676 64.939a4.188 4.188 0 0 0 2.17.569v-12.094l-101.933-64.448-2.913 1.847a5.101 5.101 0 0 0-1.538 1.77 5.652 5.652 0 0 0-.644 2.339Z"/><path fill="#37474F" d="m220.006 371.218 123.058-77.835a4.468 4.468 0 0 1 2.176-.571 4.47 4.47 0 0 1 2.176.571l102.676 64.94c.265.094.496.278.66.526.164.247.252.544.252.85 0 .305-.088.603-.252.85a1.34 1.34 0 0 1-.66.526l-123.058 77.834a4.46 4.46 0 0 1-2.176.572 4.46 4.46 0 0 1-2.176-.572L220.006 373.97a1.34 1.34 0 0 1-.66-.526 1.54 1.54 0 0 1-.252-.85c0-.306.088-.603.252-.85.164-.248.395-.432.66-.526Z"/><path fill="#fff" d="m235.281 373.97 79.746 50.391c.671.38 1.415.579 2.17.579.756 0 1.5-.199 2.17-.579l107.784-68.157a1.34 1.34 0 0 0 .66-.526 1.54 1.54 0 0 0 .252-.85c0-.306-.088-.603-.252-.85a1.329 1.329 0 0 0-.66-.526l-79.747-50.391a4.525 4.525 0 0 0-2.176-.562c-.755 0-1.5.192-2.176.562l-107.771 68.157a1.327 1.327 0 0 0-.661.526 1.546 1.546 0 0 0-.252.85c0 .305.089.603.252.85.164.247.395.431.661.526Z"/><path fill="#02897A" d="M259.873 363.31c5.626-3.553 14.756-3.553 20.382 0 5.626 3.553 5.638 9.329 0 12.921-5.638 3.592-14.756 3.553-20.382 0-5.626-3.553-5.626-9.355 0-12.921ZM427.162 353.491l-23.307-14.743-70.77-7.222a4.653 4.653 0 0 0-2.518.453 5.152 5.152 0 0 0-1.993 1.743 5.818 5.818 0 0 0-.961 2.589 6.01 6.01 0 0 0 .317 2.773l12.22 33.504-38.924-2.429a4.637 4.637 0 0 0-2.221.407 5.075 5.075 0 0 0-1.837 1.427 5.708 5.708 0 0 0-1.086 2.162 6.02 6.02 0 0 0-.116 2.464l5.991 39.524 13.117 8.295c.67.381 1.415.58 2.17.58.755 0 1.499-.199 2.17-.58l107.783-68.156a1.33 1.33 0 0 0 .695-.529c.172-.255.263-.564.259-.882a1.534 1.534 0 0 0-.282-.873 1.314 1.314 0 0 0-.707-.507Z"/><path fill="#EBEBEB" d="M426.785 259.778v-51.579l61.157-38.672v51.566l-61.157 38.685Z"/><path fill="#E6E6E6" d="m426.785 208.198-76.455-48.349v51.579l76.455 48.349v-51.579Z"/><path fill="#F0F0F0" d="m426.785 208.198 62.974-39.835-78.272-49.512-62.962 39.848 78.26 49.499Z"/><path fill="#EBEBEB" d="M426.785 208.198v12.894l62.974-39.821v-12.908l-62.974 39.835Z"/><path fill="#E6E6E6" d="m426.785 221.092 61.157-38.671v2.829l-61.157 38.685v-2.843Z"/><path fill="#EBEBEB" d="m348.525 158.698 78.26 49.5v12.895l-78.26-49.5v-12.895Z"/><path fill="#E0E0E0" d="m426.785 221.093-76.455-48.349v2.842l76.455 48.35v-2.843Z" opacity=".5" style="mix-blend-mode:multiply"/><path fill="#E0E0E0" d="m446.919 216.04 20.889-13.218c.896-.568 1.628-.103 1.628 1.034v13.528a4.239 4.239 0 0 1-.476 1.764 3.812 3.812 0 0 1-1.152 1.337l-20.889 13.231c-.908.568-1.628.116-1.628-1.021v-13.567a4.15 4.15 0 0 1 .471-1.761c.283-.537.68-.992 1.157-1.327Z"/><path fill="#fff" d="m448.252 217.579 18.211-11.526c.602-.374 1.097-.064 1.097.685v10.182a2.768 2.768 0 0 1-.317 1.181c-.191.36-.458.664-.78.886l-18.211 11.525c-.602.375-1.085 0-1.085-.698v-10.181c.017-.413.125-.814.314-1.172.189-.357.453-.66.771-.882Z"/><path fill="#EBEBEB" d="M426.785 201.725v-51.58l61.157-38.685v51.58l-61.157 38.685Z"/><path fill="#E6E6E6" d="m426.785 150.145-76.455-48.349v51.58l76.455 48.349v-51.58Z"/><path fill="#F5F5F5" d="m426.785 150.145 62.974-39.848-78.272-49.499-62.962 39.835 78.26 49.512Z"/><path fill="#EBEBEB" d="M426.785 150.146v12.894l62.974-39.821v-12.921l-62.974 39.848Z"/><path fill="#E6E6E6" d="m426.785 163.04 61.157-38.685v2.843l-61.157 38.672v-2.83Z"/><path fill="#EBEBEB" d="m348.525 100.633 78.26 49.512v12.895l-78.26-49.499v-12.908Z"/><path fill="#E0E0E0" d="m426.785 163.04-76.455-48.35v2.83l76.455 48.349v-2.829Z" opacity=".5" style="mix-blend-mode:multiply"/><path fill="#E0E0E0" d="m446.919 157.988 20.889-13.218c.896-.569 1.628-.103 1.628 1.034v13.528a4.29 4.29 0 0 1-.479 1.761 3.88 3.88 0 0 1-1.149 1.34l-20.889 13.205c-.908.568-1.628.103-1.628-1.034v-13.528c.026-.62.187-1.224.471-1.761.283-.538.68-.993 1.157-1.327Z"/><path fill="#fff" d="M448.252 159.513 466.463 148c.602-.375 1.097-.077 1.097.685v10.091a2.857 2.857 0 0 1-.324 1.176 2.576 2.576 0 0 1-.773.891l-18.211 11.513c-.602.387-1.085.077-1.085-.685v-10.143c.023-.406.133-.8.322-1.15.188-.35.45-.647.763-.865Z"/><path fill="#E0E0E0" d="m484.64 165.12-57.855 36.605-73.153-46.295-1.793 1.163 74.946 47.238 59.659-37.574-1.804-1.137Z"/></svg>