<svg xmlns="http://www.w3.org/2000/svg" width="610" height="555" fill="none"><path fill="#F5F5F5" d="M98.523 499.057c114.038 58.591 298.916 58.591 412.954 0 114.038-58.59 114.024-153.576 0-212.166-114.025-58.59-298.916-58.59-412.954 0-114.038 58.59-114.024 153.576 0 212.166Z"/><g fill="#E6E6E6"><path d="M513.042 354.65c22.227 0 40.245-8.444 40.245-18.86 0-10.417-18.018-18.861-40.245-18.861-22.226 0-40.244 8.444-40.244 18.861 0 10.416 18.018 18.86 40.244 18.86ZM97.816 464.99c20.377 0 36.896-7.743 36.896-17.294 0-9.552-16.519-17.295-36.896-17.295-20.378 0-36.897 7.743-36.897 17.295 0 9.551 16.52 17.294 36.897 17.294ZM371.757 498.241c21.204 0 38.394-8.061 38.394-18.004 0-9.943-17.19-18.004-38.394-18.004-21.204 0-38.394 8.061-38.394 18.004 0 9.943 17.19 18.004 38.394 18.004ZM181.19 412.089c21.204 0 38.394-8.061 38.394-18.004 0-9.943-17.19-18.004-38.394-18.004-21.204 0-38.394 8.061-38.394 18.004 0 9.943 17.19 18.004 38.394 18.004Z"/></g><path fill="#02897A" d="M407.129 291.763c.939-11.097 26.798-52.727 34.705-59.179 7.908-6.452 21.872-22.756 15.856-32.019-6.016-9.263-23.695-5.14-40.299 23.733-12.875 22.395-16.876 71.923-16.876 71.923l6.614-4.458Z"/><path fill="#fff" d="M403.591 290.719h-.109a.67.67 0 0 1-.552-.503.632.632 0 0 1-.006-.26c7.308-46.476 22.837-75.469 47.471-88.641a.694.694 0 0 1 .755.067.661.661 0 0 1 .103.943.675.675 0 0 1-.204.168c-24.24 12.957-39.537 41.643-46.791 87.678a.681.681 0 0 1-.667.548Z"/><path fill="#37474F" d="M409.729 237.925s20.755-35.285 37.944-51.442c9.527-8.955 15.379-14.724 14.862-21.498-.381-5.14-4.722-7.884-14.059-5.622-18.605 4.498-28.581 23.038-35.005 43.799-4.559 14.617-3.742 34.763-3.742 34.763Z"/><path fill="#00FFE3" d="M409.729 237.925s20.755-35.285 37.944-51.442c9.527-8.955 15.379-14.724 14.862-21.498-.381-5.14-4.722-7.884-14.059-5.622-18.605 4.498-28.581 23.038-35.005 43.799-4.559 14.617-3.742 34.763-3.742 34.763Z" opacity=".2"/><path fill="#fff" d="M412.137 232.129h-.095a.689.689 0 0 1-.447-.273.67.67 0 0 1-.124-.503c7.39-45.86 35.481-63.128 43.919-67.331a.69.69 0 0 1 .912.294.652.652 0 0 1 .044.511.648.648 0 0 1-.344.386c-8.288 4.136-35.889 21.11-43.184 66.354a.665.665 0 0 1-.234.405.684.684 0 0 1-.447.157Z"/><path fill="#11B5E4" d="m525.985 133.769-4.491-8.299 3.606-10.253v-6.278l-11.051 6.278v6.277l4.75 8.112a.661.661 0 0 0 .327.281l6.859 3.882Z"/><path fill="#000" d="m525.985 133.769-4.491-8.299 3.606-10.253v-6.278l-11.051 6.278v6.277l4.75 8.112a.661.661 0 0 0 .327.281l6.859 3.882Z" opacity=".1"/><path fill="#11B5E4" d="m500.343 94.803 30.432-17.402a7.477 7.477 0 0 1 6.628 0l2.722 1.54a7.226 7.226 0 0 1 2.351 2.431 7.09 7.09 0 0 1 .97 3.218v24.255a7.126 7.126 0 0 1-.974 3.215 7.272 7.272 0 0 1-2.347 2.434l-30.459 17.401a7.47 7.47 0 0 1-6.628 0l-2.722-1.539a7.242 7.242 0 0 1-2.342-2.435 7.099 7.099 0 0 1-.965-3.214v-24.282a7.142 7.142 0 0 1 .987-3.201 7.28 7.28 0 0 1 2.347-2.421Z"/><path fill="#fff" d="m500.343 94.803 30.432-17.402a7.477 7.477 0 0 1 6.628 0l2.722 1.54a7.226 7.226 0 0 1 2.351 2.431 7.09 7.09 0 0 1 .97 3.218v24.255a7.126 7.126 0 0 1-.974 3.215 7.272 7.272 0 0 1-2.347 2.434l-30.459 17.401a7.47 7.47 0 0 1-6.628 0l-2.722-1.539a7.242 7.242 0 0 1-2.342-2.435 7.099 7.099 0 0 1-.965-3.214v-24.282a7.142 7.142 0 0 1 .987-3.201 7.28 7.28 0 0 1 2.347-2.421Z" opacity=".3"/><path fill="#11B5E4" d="M509.68 131.869c-1.837 1.03-3.321.2-3.321-1.888v-24.255a7.138 7.138 0 0 1 .974-3.215 7.272 7.272 0 0 1 2.347-2.434l30.459-17.402c1.837-1.044 3.321-.2 3.321 1.888v24.255a7.126 7.126 0 0 1-.974 3.215 7.272 7.272 0 0 1-2.347 2.434"/><path fill="#11B5E4" d="M497.036 124.68a7.115 7.115 0 0 0 .965 3.215 7.248 7.248 0 0 0 2.342 2.434l2.722 1.54a7.496 7.496 0 0 0 6.057.254c-1.552.589-2.722-.281-2.722-2.142v-24.255a6.611 6.611 0 0 1 .98-3.213l-9.337-5.354a6.61 6.61 0 0 0-.966 3.213l-.041 24.308Z"/><path fill="#000" d="M497.036 124.68a7.115 7.115 0 0 0 .965 3.215 7.248 7.248 0 0 0 2.342 2.434l2.722 1.54a7.496 7.496 0 0 0 6.057.254c-1.552.589-2.722-.281-2.722-2.142v-24.255a6.611 6.611 0 0 1 .98-3.213l-9.337-5.354a6.61 6.61 0 0 0-.966 3.213l-.041 24.308Z" opacity=".1"/><path fill="#11B5E4" d="m520.976 125.43 4.75 8.098a.72.72 0 0 0 .685.339.726.726 0 0 0 .608-.459l5.022-14.256v-6.278l-11.065 6.278v6.278Z"/><path fill="#fff" d="m524.923 117.144-3.403-.883c-3.239-.844-7.104-2.678-7.104-6.787a10.591 10.591 0 0 1 1.64-4.708 10.814 10.814 0 0 1 3.627-3.471 3.346 3.346 0 0 1 4.672.836 3.21 3.21 0 0 1 .554 1.627c.341-2.677 2.545-6.88 5.227-8.406 2.912-1.647 5.267-.67 5.267 2.195 0 4.096-3.852 10.334-7.091 14.858l-3.389 4.739Z"/><path fill="#FF7800" d="m74.978 197.473 30.459-17.335a7.39 7.39 0 0 1 3.314-.783 7.39 7.39 0 0 1 3.314.783l2.722 1.526a7.283 7.283 0 0 1 2.338 2.437c.574.981.906 2.081.969 3.212v24.255a7.145 7.145 0 0 1-.969 3.212 7.283 7.283 0 0 1-2.338 2.437l-30.418 17.335a7.42 7.42 0 0 1-3.321.783 7.42 7.42 0 0 1-3.32-.783l-2.723-1.526a7.265 7.265 0 0 1-2.374-2.454 7.129 7.129 0 0 1-.974-3.249v-24.201a7.09 7.09 0 0 1 .97-3.218 7.222 7.222 0 0 1 2.35-2.431Z"/><path fill="#fff" d="m74.978 197.473 30.459-17.335a7.39 7.39 0 0 1 3.314-.783 7.39 7.39 0 0 1 3.314.783l2.722 1.526a7.283 7.283 0 0 1 2.338 2.437c.574.981.906 2.081.969 3.212v24.255a7.145 7.145 0 0 1-.969 3.212 7.283 7.283 0 0 1-2.338 2.437l-30.418 17.335a7.42 7.42 0 0 1-3.321.783 7.42 7.42 0 0 1-3.32-.783l-2.723-1.526a7.265 7.265 0 0 1-2.374-2.454 7.129 7.129 0 0 1-.974-3.249v-24.201a7.09 7.09 0 0 1 .97-3.218 7.222 7.222 0 0 1 2.35-2.431Z" opacity=".3"/><path fill="#FF7800" d="m100.606 236.466-4.492-8.312 3.62-10.254v-6.278l-11.064 6.331v6.278l4.763 8.032a.685.685 0 0 0 .313.281l6.86 3.922Z"/><path fill="#000" d="m100.606 236.466-4.492-8.312 3.62-10.254v-6.278l-11.064 6.331v6.278l4.763 8.032a.685.685 0 0 0 .313.281l6.86 3.922Z" opacity=".1"/><path fill="#FF7800" d="M84.369 234.552c-1.838 1.044-3.321.201-3.321-1.888v-24.255a7.106 7.106 0 0 1 .974-3.209 7.243 7.243 0 0 1 2.347-2.426l30.472-17.402c1.824-1.031 3.308-.187 3.308 1.887v24.256a7.141 7.141 0 0 1-.97 3.212 7.273 7.273 0 0 1-2.338 2.437"/><path fill="#FF7800" d="M71.657 227.323a7.129 7.129 0 0 0 .974 3.215 7.265 7.265 0 0 0 2.347 2.434l2.722 1.526a7.587 7.587 0 0 0 6.07.268c-1.565.576-2.722-.295-2.722-2.155v-24.202c.04-1.134.372-2.24.966-3.213l-9.323-5.287a6.613 6.613 0 0 0-.98 3.213l-.054 24.201Z"/><path fill="#000" d="M71.657 227.323a7.129 7.129 0 0 0 .974 3.215 7.265 7.265 0 0 0 2.347 2.434l2.722 1.526a7.587 7.587 0 0 0 6.07.268c-1.565.576-2.722-.295-2.722-2.155v-24.202c.04-1.134.372-2.24.966-3.213l-9.323-5.287a6.613 6.613 0 0 0-.98 3.213l-.054 24.201Z" opacity=".1"/><path fill="#FF7800" d="m95.61 228.113 4.751 8.032a.705.705 0 0 0 .678.342.699.699 0 0 0 .601-.463l5.022-14.256v-6.278l-11.051 6.278v6.345Z"/><path fill="#fff" d="M88.044 213.63a6.74 6.74 0 0 0-2.224 2.303 6.61 6.61 0 0 0-.893 3.051c0 1.954 1.36 2.677 3.117 1.767a6.854 6.854 0 0 0 2.21-2.309 6.719 6.719 0 0 0 .906-3.045c.014-1.955-1.347-2.798-3.116-1.767ZM99.544 207.084a6.818 6.818 0 0 0-2.222 2.306 6.69 6.69 0 0 0-.908 3.048c0 1.955 1.36 2.744 3.13 1.767a6.838 6.838 0 0 0 2.211-2.309 6.722 6.722 0 0 0 .906-3.045c0-1.954-1.402-2.744-3.117-1.767ZM111.031 200.552a6.838 6.838 0 0 0-2.211 2.309 6.722 6.722 0 0 0-.906 3.045c0 1.954 1.361 2.677 3.117 1.767a6.746 6.746 0 0 0 2.223-2.303 6.619 6.619 0 0 0 .894-3.051c0-1.968-1.389-2.758-3.117-1.767Z"/><path fill="#37474F" d="M397.956 21.756 265.64 96.851a12.915 12.915 0 0 0-4.166 4.328 12.657 12.657 0 0 0-1.727 5.712v288.051c0 3.695 2.64 5.194 5.893 3.347l132.316-75.095a12.923 12.923 0 0 0 4.166-4.328 12.682 12.682 0 0 0 1.727-5.712V25.103c0-3.695-2.64-5.194-5.893-3.347Z"/><path fill="#455A64" d="m265.64 96.851 132.316-75.095c2.913-1.646 5.321-.615 5.798 2.263a12.821 12.821 0 0 0-1.924-5.089 13.054 13.054 0 0 0-3.874-3.867l-4.804-2.677A13.207 13.207 0 0 0 387.259 11c-2.048 0-4.067.475-5.894 1.386L249.049 87.441a11.908 11.908 0 0 0-4.164 4.324l16.59 9.37a11.906 11.906 0 0 1 4.165-4.284Z"/><path fill="#263238" d="M243.156 385.518c.11 2.012.701 3.97 1.725 5.714a12.886 12.886 0 0 0 4.168 4.326l4.805 2.677a13.346 13.346 0 0 0 10.779.469c-2.722 1.03-4.886-.509-4.886-3.815V106.851c.068-2.02.663-3.988 1.728-5.716l-16.59-9.37a11.695 11.695 0 0 0-1.729 5.716v288.037Z"/><path fill="#FAFAFA" d="m268.811 132.726 125.974-71.495c1.946-1.11 3.538-.214 3.538 2.008v218.07a7.63 7.63 0 0 1-1.04 3.426 7.785 7.785 0 0 1-2.498 2.598l-125.974 71.48c-1.946 1.112-3.539.215-3.539-2.007V138.749a7.598 7.598 0 0 1 1.035-3.429 7.716 7.716 0 0 1 2.504-2.594Z"/><path fill="#263238" d="M330.464 70.481a4.553 4.553 0 0 0-1.462 1.525 4.48 4.48 0 0 0-.607 2.009c0 1.338.926 1.834 2.069 1.178a4.54 4.54 0 0 0 1.465-1.523 4.457 4.457 0 0 0 .604-2.011c0-1.298-.926-1.82-2.069-1.178ZM310.879 91.203a9.096 9.096 0 0 0-2.897 3.056 8.915 8.915 0 0 0-1.186 4.011c0 2.597 1.851 3.655 4.083 2.356a9.064 9.064 0 0 0 2.936-3.045 8.888 8.888 0 0 0 1.215-4.023c0-2.596-1.864-3.654-4.151-2.355ZM321.019 90.319c0 1.74 1.361 2.396 2.953 1.472l27.22-15.487a6.279 6.279 0 0 0 2.055-2.065c.51-.837.814-1.78.885-2.754 0-1.727-1.361-2.383-2.94-1.46l-27.22 15.488a6.264 6.264 0 0 0-2.06 2.056 6.141 6.141 0 0 0-.893 2.75Z"/><path fill="#37474F" d="M252.329 141.346a7.232 7.232 0 0 1 2.351 2.432c.578.982.91 2.084.97 3.217 0 2.075-1.483 2.918-3.321 1.887a7.295 7.295 0 0 1-2.339-2.443 7.15 7.15 0 0 1-.968-3.219c.027-2.075 1.483-2.905 3.307-1.874ZM252.329 166.471a7.272 7.272 0 0 1 2.347 2.434c.577.982.911 2.083.974 3.215 0 2.088-1.483 2.932-3.321 1.888a7.286 7.286 0 0 1-2.307-2.412 7.14 7.14 0 0 1-.973-3.17c0-2.142 1.457-2.985 3.28-1.955Z"/><path fill="#455A64" d="M251.308 141.841a7.272 7.272 0 0 1 2.347 2.434c.577.982.911 2.083.974 3.215 0 2.088-1.483 2.932-3.321 1.887a7.295 7.295 0 0 1-2.344-2.435 7.158 7.158 0 0 1-.976-3.213c0-2.075 1.497-2.919 3.32-1.888ZM251.308 166.98a7.272 7.272 0 0 1 2.347 2.434c.577.982.911 2.083.974 3.215 0 2.088-1.483 2.931-3.321 1.887a7.295 7.295 0 0 1-2.344-2.435 7.162 7.162 0 0 1-.976-3.214c0-2.088 1.497-2.931 3.32-1.887Z"/><path fill="#263238" d="M331.798 332.698a17.897 17.897 0 0 0-5.777 6.007 17.55 17.55 0 0 0-2.389 7.927c0 5.141 3.661 7.215 8.166 4.659a17.94 17.94 0 0 0 5.777-6.015 17.599 17.599 0 0 0 2.389-7.933c.013-5.141-3.648-7.215-8.166-4.645Z"/><path fill="#fff" stroke="#141414" stroke-miterlimit="10" d="M294.929 355.708c-1.157 0-1.28-1.339-1.28-1.82V135.831a7.004 7.004 0 0 1 .952-3.092 7.134 7.134 0 0 1 2.246-2.356l125.974-71.494c.376-.221.801-.35 1.239-.375 1.157 0 1.279 1.258 1.279 1.807v218.07a6.968 6.968 0 0 1-.95 3.087 7.115 7.115 0 0 1-2.248 2.348L296.167 355.32a2.587 2.587 0 0 1-1.238.388Z"/><path fill="#37474F" stroke="#141414" stroke-miterlimit="10" d="M424.06 59.183c.517 0 .598.71.598 1.138v218.07a6.291 6.291 0 0 1-.857 2.755 6.417 6.417 0 0 1-2.001 2.104l-125.973 71.494a2.015 2.015 0 0 1-.899.295c-.517 0-.598-.723-.598-1.151V135.831c.068-.97.361-1.913.856-2.755a6.43 6.43 0 0 1 2.002-2.104l125.973-71.494a1.86 1.86 0 0 1 .899-.295Zm0-1.338a3.251 3.251 0 0 0-1.579.468l-125.974 71.494a7.728 7.728 0 0 0-2.504 2.595 7.585 7.585 0 0 0-1.034 3.429v218.057c0 1.579.802 2.489 1.959 2.489a3.263 3.263 0 0 0 1.579-.482l125.974-71.48a7.743 7.743 0 0 0 2.502-2.596 7.58 7.58 0 0 0 1.036-3.428V60.321c0-1.566-.803-2.476-1.959-2.476Z"/><path fill="#37474F" d="M425.979 60.321c0-2.222-1.579-3.119-3.539-2.008l-125.974 71.495a7.722 7.722 0 0 0-2.503 2.594 7.574 7.574 0 0 0-1.035 3.429v17.87l133.051-75.51v-17.87Z"/><path fill="#000" d="M425.979 60.321c0-2.222-1.579-3.119-3.539-2.008l-125.974 71.495a7.722 7.722 0 0 0-2.503 2.594 7.574 7.574 0 0 0-1.035 3.429v17.87l133.051-75.51v-17.87Z" opacity=".1"/><path fill="#fff" d="M306.851 133.93a1.476 1.476 0 0 0-1.361.174 5.391 5.391 0 0 0-1.703 1.782 5.295 5.295 0 0 0-.72 2.341 1.332 1.332 0 0 0 .531 1.258 1.373 1.373 0 0 0 1.361-.187 5.385 5.385 0 0 0 1.692-1.778 5.297 5.297 0 0 0 .717-2.331 1.341 1.341 0 0 0-.517-1.259Z"/><path fill="#fff" d="m309.722 129.366-.299.174v-.603c0-.843-.599-1.191-1.361-.763l-5.716 3.24c-.393.25-.721.588-.958.985a2.914 2.914 0 0 0-.403 1.304v.616l-.313.174a3.91 3.91 0 0 0-1.27 1.314 3.848 3.848 0 0 0-.527 1.737v5.449c0 1.124.803 1.593 1.797 1.03l9.023-5.127a3.935 3.935 0 0 0 1.271-1.321c.312-.532.492-1.13.525-1.744v-5.475c.028-1.097-.775-1.552-1.769-.99Zm-4.246 10.816c-.44.264-.942.411-1.456.428a1.932 1.932 0 0 1-.953-.241 2.372 2.372 0 0 1-.819-.931 2.326 2.326 0 0 1-.229-1.211 6.18 6.18 0 0 1 .851-2.849 6.31 6.31 0 0 1 2.089-2.144 2.361 2.361 0 0 1 2.409-.187c.352.232.635.554.817.931.182.377.257.795.217 1.211a6.217 6.217 0 0 1-.848 2.845 6.343 6.343 0 0 1-2.078 2.148Zm4.083-7.269c-.463.254-.83 0-.83-.482.014-.284.096-.561.241-.808.144-.247.346-.456.589-.611.463-.268.844 0 .844.469a1.833 1.833 0 0 1-.79 1.432h-.054ZM418.738 65.823l-8.806 4.993c-.51.327-.935.767-1.24 1.286a3.772 3.772 0 0 0-.515 1.699v5.354c0 1.084.789 1.54 1.755.99l5.24-2.971 2.055 2.021a.347.347 0 0 0 .515-.059.336.336 0 0 0 .057-.182v-3.28l.939-.535a3.841 3.841 0 0 0 1.263-1.28 3.77 3.77 0 0 0 .534-1.705V66.8c0-1.084-.831-1.526-1.797-.977Z"/><path fill="#37474F" d="M309.927 150.516c4.6-2.571 8.329-.482 8.329 4.685a17.777 17.777 0 0 1-2.453 8.02 18.133 18.133 0 0 1-5.876 6.062c-4.614 2.677-8.343.522-8.343-4.685.154-2.83.992-5.584 2.442-8.032a17.986 17.986 0 0 1 5.901-6.05ZM326.504 144.211l27.642-15.689c1.633-.923 2.953-.267 2.953 1.459a6.145 6.145 0 0 1-.89 2.758 6.263 6.263 0 0 1-2.063 2.061l-27.642 15.689c-1.62.923-2.94.267-2.94-1.46a6.156 6.156 0 0 1 .885-2.754 6.276 6.276 0 0 1 2.055-2.064Z"/><path fill="#fff" d="m326.504 144.211 27.642-15.689c1.633-.923 2.953-.267 2.953 1.459a6.145 6.145 0 0 1-.89 2.758 6.263 6.263 0 0 1-2.063 2.061l-27.642 15.689c-1.62.923-2.94.267-2.94-1.46a6.156 6.156 0 0 1 .885-2.754 6.276 6.276 0 0 1 2.055-2.064Z" opacity=".7"/><path fill="#37474F" d="m325.578 155.334 18.959-10.708c1.116-.63 2.014-.188 2.014 1.003a4.211 4.211 0 0 1-.606 1.89 4.305 4.305 0 0 1-1.408 1.417l-18.959 10.709c-1.116.629-2.014.174-2.014-1.018a4.21 4.21 0 0 1 .608-1.883 4.287 4.287 0 0 1 1.406-1.41Z"/><path fill="#fff" d="m325.578 155.334 18.959-10.708c1.116-.63 2.014-.188 2.014 1.003a4.211 4.211 0 0 1-.606 1.89 4.305 4.305 0 0 1-1.408 1.417l-18.959 10.709c-1.116.629-2.014.174-2.014-1.018a4.21 4.21 0 0 1 .608-1.883 4.287 4.287 0 0 1 1.406-1.41Z" opacity=".7"/><path fill="#37474F" d="M309.927 291.255c4.6-2.57 8.329-.469 8.329 4.685a17.773 17.773 0 0 1-2.453 8.02 18.133 18.133 0 0 1-5.876 6.062c-4.614 2.677-8.343.522-8.343-4.685a17.68 17.68 0 0 1 2.447-8.03 18.023 18.023 0 0 1 5.896-6.052ZM326.504 284.963l27.642-15.701c1.633-.924 2.953-.268 2.953 1.459a6.141 6.141 0 0 1-.89 2.757 6.256 6.256 0 0 1-2.063 2.062l-27.642 15.701c-1.62.924-2.94.268-2.94-1.472a6.156 6.156 0 0 1 .888-2.747 6.29 6.29 0 0 1 2.052-2.059Z"/><path fill="#fff" d="m326.504 284.963 27.642-15.701c1.633-.924 2.953-.268 2.953 1.459a6.141 6.141 0 0 1-.89 2.757 6.256 6.256 0 0 1-2.063 2.062l-27.642 15.701c-1.62.924-2.94.268-2.94-1.472a6.156 6.156 0 0 1 .888-2.747 6.29 6.29 0 0 1 2.052-2.059Z" opacity=".7"/><path fill="#37474F" d="m325.578 296.074 18.959-10.709c1.116-.629 2.014-.187 2.014 1.004a4.215 4.215 0 0 1-.606 1.89 4.302 4.302 0 0 1-1.408 1.416l-18.959 10.709c-1.116.629-2.014.174-2.014-1.004a4.21 4.21 0 0 1 .605-1.89c.35-.575.833-1.06 1.409-1.416Z"/><path fill="#fff" d="m325.578 296.074 18.959-10.709c1.116-.629 2.014-.187 2.014 1.004a4.215 4.215 0 0 1-.606 1.89 4.302 4.302 0 0 1-1.408 1.416l-18.959 10.709c-1.116.629-2.014.174-2.014-1.004a4.21 4.21 0 0 1 .605-1.89c.35-.575.833-1.06 1.409-1.416Z" opacity=".7"/><path fill="#F5F5F5" d="m307.341 177.073 104.674-59.433c1.633-.924 2.953-.174 2.953 1.673V222.13a6.346 6.346 0 0 1-.865 2.864 6.472 6.472 0 0 1-2.088 2.169l-104.674 59.782c-1.634.923-2.94.174-2.94-1.674V182.093a6.31 6.31 0 0 1 .858-2.857 6.436 6.436 0 0 1 2.082-2.163Z"/><path fill="#37474F" d="M345.761 200.619a2.592 2.592 0 0 0-1.067-.885 2.643 2.643 0 0 0-2.672.305 2.558 2.558 0 0 0-.833 1.102l-36.747 68.643v15.487c0 1.848 1.361 2.597 2.939 1.674l104.675-59.474a6.482 6.482 0 0 0 2.088-2.169 6.358 6.358 0 0 0 .865-2.864V188.17l-19.884-34.736c-1.103-1.941-2.641-1.821-3.444.254l-26.471 69.004-19.449-22.073Z"/><path fill="#00564C" d="M345.761 200.619a2.592 2.592 0 0 0-1.067-.885 2.643 2.643 0 0 0-2.672.305 2.558 2.558 0 0 0-.833 1.102l-36.747 68.643v15.487c0 1.848 1.361 2.597 2.939 1.674l104.675-59.474a6.482 6.482 0 0 0 2.088-2.169 6.358 6.358 0 0 0 .865-2.864V188.17l-19.884-34.736c-1.103-1.941-2.641-1.821-3.444.254l-26.471 69.004-19.449-22.073Z" opacity=".3"/><path fill="#37474F" d="M315.439 204.889c9.227-5.207 16.726-17.897 16.726-28.338 0-5.354-1.96-9.022-5.076-10.709l-19.748 11.204a6.436 6.436 0 0 0-2.082 2.163 6.313 6.313 0 0 0-.858 2.857v24.282c2.94 1.299 6.791.897 11.038-1.459Z"/><path fill="#fff" d="M315.439 204.889c9.227-5.207 16.726-17.897 16.726-28.338 0-5.354-1.96-9.022-5.076-10.709l-19.748 11.204a6.436 6.436 0 0 0-2.082 2.163 6.313 6.313 0 0 0-.858 2.857v24.282c2.94 1.299 6.791.897 11.038-1.459Z" opacity=".6"/><path fill="#37474F" d="m307.341 318.348 104.674-59.447c1.633-.923 2.953-.268 2.953 1.473a6.134 6.134 0 0 1-.893 2.749 6.258 6.258 0 0 1-2.06 2.056l-104.674 59.447c-1.634.924-2.94.268-2.94-1.472a6.1 6.1 0 0 1 .883-2.751 6.227 6.227 0 0 1 2.057-2.055Z"/><path fill="#fff" d="m307.341 318.348 104.674-59.447c1.633-.923 2.953-.268 2.953 1.473a6.134 6.134 0 0 1-.893 2.749 6.258 6.258 0 0 1-2.06 2.056l-104.674 59.447c-1.634.924-2.94.268-2.94-1.472a6.1 6.1 0 0 1 .883-2.751 6.227 6.227 0 0 1 2.057-2.055Z" opacity=".6"/><path fill="#37474F" d="m307.341 330.904 104.674-59.407c1.633-.923 2.953-.268 2.953 1.473a6.134 6.134 0 0 1-.893 2.749 6.258 6.258 0 0 1-2.06 2.056l-104.674 59.447c-1.634.924-2.94.268-2.94-1.472.064-.98.364-1.93.875-2.772a6.224 6.224 0 0 1 2.065-2.074Z"/><path fill="#fff" d="m307.341 330.904 104.674-59.407c1.633-.923 2.953-.268 2.953 1.473a6.134 6.134 0 0 1-.893 2.749 6.258 6.258 0 0 1-2.06 2.056l-104.674 59.447c-1.634.924-2.94.268-2.94-1.472.064-.98.364-1.93.875-2.772a6.224 6.224 0 0 1 2.065-2.074Z" opacity=".6"/><path fill="#FAFAFA" d="M323.482 121.107 398.16 78.74c2.286-1.338 4.083-.24 4.083 2.343a8.818 8.818 0 0 1-1.187 3.988 8.984 8.984 0 0 1-2.896 3.026l-74.664 42.246c-2.287 1.338-4.083.268-4.083-2.276a8.81 8.81 0 0 1 1.192-3.956 8.972 8.972 0 0 1 2.877-3.004Z"/><path fill="#F28F8F" d="m542.888 201.462 5.294 9.544-8.234 6.948-7.553-11.767 10.493-4.725Z"/><path fill="#E0E0E0" d="M523.018 180.192c5.253 0 11.037 1.927 13.024 5.983l8.166 16.652s-4.641 6.693-12.004 6.211l-9.186-28.846Z"/><path fill="#37474F" d="M542.48 212.492c1.538-2.811 1.919-2.945 2.831-3.561.912-.615 6.519-1.432 8.846-1.633 2.722-.227 3.716.268 2.954 2.584a115.625 115.625 0 0 1-7.676 16.946c-.735.951-.871 1.834-3.961 2.142-2.872.268-6.478.429-7.54.482-1.061.054-2.531.335-1.592-2.744a99.216 99.216 0 0 1 4.219-10.213c1.184-2.557 1.919-4.003 1.919-4.003Z"/><path fill="#263238" d="M481.153 307.197c-1.361-.669-2.137.964-3.321 2.276a9.66 9.66 0 0 0-2.327 3.427c-.286 1.539 1.143 4.015 2.722 5.354 1.579 1.339 3.402 2.316 3.974 5.261a7.14 7.14 0 0 0 1.538 3.7 7.317 7.317 0 0 0 3.307 2.323c3.403 1.446 7.962.977 9.527 0 1.824-1.164.15-2.449-2.409-6.064-3.348-4.711-5.961-8.031-5.961-12.489l-7.05-3.788Z"/><path fill="#FFA8A7" d="m483.835 303.329-2.722 4.015a3.74 3.74 0 0 0-.646 2.826 3.782 3.782 0 0 0 1.572 2.449l.081.066a4.236 4.236 0 0 0 2.783.526 4.199 4.199 0 0 0 2.484-1.342l4.301-4.605-7.853-3.935Z"/><path fill="#37474F" d="M534.382 225.905c.177 5.06-1.28 25.5-4.832 34.535-3.552 9.036-5.607 14.658-6.723 16.545-1.116 1.888-33.317 32.702-33.317 32.702s-5.444-.388-6.329-5.595c0 0 13.188-22.06 16.046-26.585 2.858-4.524 12.984-11.458 12.984-11.458l-.925-39.569 23.096-.575Z"/><path fill="#FFA8A7" d="M486.679 220.979c0-.87 2.722-10.87 4.083-15.488l9.976 3.373-2.341 7.282-8.778 8.929a3.712 3.712 0 0 1-2.301-1.471 3.595 3.595 0 0 1-.639-2.625ZM527.288 333.59l6.808-1.523-2.254-9.75-6.808 1.522 2.254 9.751Z"/><path fill="#37474F" d="M534.382 225.905h-32.664a110.148 110.148 0 0 0-1.225 14.162c-.258 13.921 12.916 39.207 12.916 39.207a52.344 52.344 0 0 0 .844 16.853c2.885 11.084 10.752 29.864 10.752 29.864s4.94.683 7.376-2.115c0 0-4.355-38.109-5.525-47.868-1.266-10.575-4.532-29.864-4.532-29.864a49.14 49.14 0 0 0 5.838-6.88 34.007 34.007 0 0 0 6.206-13.386"/><path fill="#11B5E4" d="M512.239 180.473c-6.261 1.486-14.794 3.413-17.258 10.079-2.463 6.667-6.015 18.486-6.015 18.486 1.361 2.343 8.914 4.284 11.541 2.932l1.225-4.016v17.91c4.899 5.248 21.966 7.684 32.664 0V192.4c0-5.355-3.022-11.78-11.365-12.248l-10.792.321Z"/><path fill="#E0E0E0" d="m501.731 207.994 3.144-9.731-3.144 14.082v-4.351Z"/><path fill="#263238" d="M509.884 153.125a3.801 3.801 0 0 0-1.663.189 3.744 3.744 0 0 0-1.413.882c-1.361 1.339-1.048 3.788 0 9.451l4.083.455-1.007-10.977ZM533.715 151.492c.858.009 1.71-.15 2.505-.468 1.252-.71 1.578.696.884 1.914a5.763 5.763 0 0 1-1.956 2.161 5.896 5.896 0 0 1-2.78.945c0-.174-1.17-3.146-1.17-3.146l2.517-1.406Z"/><path fill="#FFA8A7" d="M511.803 164.102c-.599.361-1.47-.79-2.219-1.553a2.66 2.66 0 0 0-3.611-.338 2.585 2.585 0 0 0-.798 1.034c-1.239 2.57 1.578 5.997 3.239 7.122a2.93 2.93 0 0 0 3.389.294l.435 9.839a10.553 10.553 0 0 0 3.255 3.997 10.787 10.787 0 0 0 4.789 2.013c5.879.776 4.668-4.016 2.722-6.318v-3.574c1.471.305 2.983.378 4.477.214.762-.201 2.586-2.369 3.77-4.806a21.501 21.501 0 0 0 1.565-15.768c-2.109-8.808-11.731-9.076-17.461-5.529-5.73 3.548-3.552 13.373-3.552 13.373Z"/><path fill="#263238" d="M511.803 165.106c-.299 0-1.456-1.888-2.218-2.557-1.048-.937.299-9.37.299-9.37a5.703 5.703 0 0 1-.169-2.802 5.755 5.755 0 0 1 1.19-2.552c2.068-2.142 6.07-1.781 8.996-1.874 3.6.014 7.165-.692 10.48-2.075 4.164-1.78 4.477-1.981 4.981-.188a9.833 9.833 0 0 1 .145 4.541 9.92 9.92 0 0 1-1.914 4.134l-1.361 2.168s-1.266 1.044-5.145 1.513c-3.879.468-10.493-1.593-11.323-1.7-1.13-.148-1.361.923-1.974 3.855-.517 2.53-.953 6.894-1.987 6.907Z"/><path fill="#263238" d="m509.898 153.795-3.675-1.941a2.008 2.008 0 0 1 1.169-1.012 2.058 2.058 0 0 1 1.553.102c.505.26.886.703 1.064 1.235a2.124 2.124 0 0 1-.111 1.616Z"/><path fill="#F28F8F" d="M523.004 176.618a42.75 42.75 0 0 1-7.336-2.075 6.315 6.315 0 0 1-2.626-2.557 8.296 8.296 0 0 0 1.497 3.012c1.361 1.754 8.465 3.039 8.465 3.039v-1.419Z"/><path fill="#263238" d="M523.181 163.915c.004.289-.108.567-.312.775a1.126 1.126 0 0 1-.777.336 1.152 1.152 0 0 1-.425-.094 1.1 1.1 0 0 1-.663-1.031 1.084 1.084 0 0 1 .312-.775c.204-.208.483-.329.776-.336a1.116 1.116 0 0 1 1.015.703c.052.134.078.278.074.422ZM522.024 159.859l-2.327 1.339a1.303 1.303 0 0 1-.119-1.03c.05-.171.135-.33.249-.468.114-.138.255-.253.414-.337a1.38 1.38 0 0 1 .99-.096c.331.091.614.303.793.592Z"/><path fill="#F28F8F" d="m522.514 171.103 2.491.924a1.347 1.347 0 0 1-.681.733c-.314.15-.675.175-1.007.07a1.36 1.36 0 0 1-.767-.699 1.33 1.33 0 0 1-.036-1.028Z"/><path fill="#263238" d="m532.899 160.755-2.124-1.606a1.374 1.374 0 0 1 1.851-.281 1.336 1.336 0 0 1 .538.888 1.316 1.316 0 0 1-.265.999ZM532.245 163.607a1.09 1.09 0 0 1-.312.775 1.126 1.126 0 0 1-.777.336 1.152 1.152 0 0 1-.425-.094 1.1 1.1 0 0 1-.664-1.031 1.09 1.09 0 0 1 .313-.775c.204-.208.483-.329.776-.336.295.011.574.134.778.344.203.21.315.49.311.781Z"/><path fill="#F28F8F" d="m527.114 163.473-1.021 6.371 3.58-.414-2.559-5.957Z"/><path fill="#263238" d="m533.32 328.815-.217-.963c.707.133 3.77 5.126 6.805 7.295 3.32 2.369 6.192 3.775 7.676 4.846 1.987 1.432-.885 4.363-5.771 4.631-2.423.121-6.805-.602-8.166-1.874-1.361-1.272-2.341-3.373-3.43-4.283-1.088-.911-3.252-1.714-4.001-2.878a8.424 8.424 0 0 1-.422-3.601c0-1.258.095-2.677.531-2.61l.163.722a8.486 8.486 0 0 0 4.083.897c1.184-.053 3.321-.308 2.749-2.182ZM526.012 269.529s-2.899-20.252-3.675-23.385a32.816 32.816 0 0 0 6.451-4.538 53.848 53.848 0 0 1-4.409 5.422l1.633 22.501ZM508.523 268.82s3.484 8.527 4.9 10.414c0 0-.354 6.506-.314 7.817l-1.823 1.567a40.468 40.468 0 0 1 .816-8.768 52.267 52.267 0 0 1-3.579-11.03Z"/><path fill="#FFA8A7" d="M498.438 216.146s27.452 2.892 30.677 1.915c3.226-.977 7.554-4.123 9.827-5.462 2.272-1.338 4.001-1.419 4.001-.87s-1.987 3.534-2.436 4.779c-.449 1.245 2.137 1.245 5.553.468 3.416-.776 4.777-2.677 5.661-1.579.885 1.098-1.891 6.693-7.553 8.794-5.662 2.102-9.867.697-14.549.897-4.682.201-33.522 2.008-40.013 0a5.55 5.55 0 0 1 .343-3.035 5.647 5.647 0 0 1 1.902-2.413 20.844 20.844 0 0 1 6.587-3.494ZM346.252 345.119c.068-.87 1.742-10.24 2.885-15.487l11.201 3.373-1.796 7.349-9.309 8.862a3.713 3.713 0 0 1-2.327-1.46 3.596 3.596 0 0 1-.654-2.637Z"/><path fill="#263238" d="M370.804 265.795h5.444c4.018 0 7.871 1.569 10.711 4.363a14.776 14.776 0 0 1 4.437 10.535v37.963h-35.74v-37.963c0-3.951 1.596-7.741 4.437-10.535a15.278 15.278 0 0 1 10.711-4.363Z"/><path fill="#F28F8F" d="m400.433 325.429 5.294 9.544-8.247 6.934-7.54-11.766 10.493-4.712Z"/><path fill="#455A64" d="M380.562 304.145c5.254 0 11.038 1.928 13.025 5.984l8.166 16.652s-4.641 6.693-12.004 6.224l-9.187-28.86Z"/><path fill="#263238" d="M384.809 469.287a47.423 47.423 0 0 0 6.07 6.586c.358.283.642.645.83 1.057.231.696.531 2.37-2.613 3.052a11.556 11.556 0 0 1-4.839.007 11.463 11.463 0 0 1-4.402-1.974c-2.3-1.821-2.028-5.02-4.151-7.122-1.579-1.539-3.716-2.141-4.9-4.015-.83-1.339-.381-2.932.368-4.9.748-1.967 1.279-3.761 2-3.507l-.245.991c.749 1.566 5.444 2.556 7.744 1.807a86.507 86.507 0 0 0 4.138 8.018Z"/><path fill="#FFA8A7" d="M386.66 471.589a31.083 31.083 0 0 1-1.851-2.302 54.899 54.899 0 0 1-3.226-6.117 5.41 5.41 0 0 1-.299-4.016l1.551-5.154-8.166-1.847-1.769 7.215c-.381 1.647.83 3.28 3.049 5.662 2.218 2.383 4.777 7.63 6.805 9.116 2.027 1.486 3.688 1.633 4.722 1.125 1.035-.509 1.293-.978-.816-3.682Z"/><path fill="#263238" d="M362.842 473.825v-1.138c.463 1.339 2.559 7.041 5.744 9.906 2.545 2.262 6.002 4.899 6.873 7.429.871 2.53-4.805 3.52-7.173 3.105a14.673 14.673 0 0 1-8.247-4.35c-1.361-1.647-2.232-3.601-3.212-4.899-.98-1.299-3.212-2.678-3.729-4.23a9.375 9.375 0 0 1 .449-4.15c.381-1.339.775-2.931 1.265-2.811v.937a6.526 6.526 0 0 0 4.083 1.339c1.116 0 3.961-.255 3.947-1.138Z"/><path fill="#FFA8A7" d="m370.886 484.587-2.3-2.008a23.138 23.138 0 0 1-4.9-7.697 10.7 10.7 0 0 1-.844-4.163v-4.511h-8.03v7.537c.382 1.646 4.083 6.01 6.166 8.861a11.724 11.724 0 0 0 7.268 4.765c3.062.402 4.654-.535 2.64-2.784Z"/><path fill="#37474F" d="M356.405 350.996c-6.22 13.386.231 60.518.231 60.518-.19 2.181-2.722 6.452-3.647 16.063-1.116 11.297 1.742 39.649 1.742 39.649a8.793 8.793 0 0 0 8.166.321s7.662-42.714 9.105-53.945l4.6-36.035 6.805 35.165a44.35 44.35 0 0 0-4.491 8.781c-1.62 4.966-4.9 33.264-4.9 33.264a9.883 9.883 0 0 0 3.869 2.143 9.99 9.99 0 0 0 4.433.253s15.72-38.819 16.427-46.744c.422-4.752-6.628-61.334-6.628-61.334l-35.712 1.901Z"/><path fill="#263238" d="m376.548 377.513 1.088-7.737s8.561-1.74 12.44-5.354a22.176 22.176 0 0 1-10.112 6.613l-1.144 7.469 1.361 17.308-3.633-18.299Z"/><path fill="#F03E3D" d="M367.456 304.506a15.877 15.877 0 0 0-6.255 3.065 15.54 15.54 0 0 0-4.293 5.422 13.187 13.187 0 0 0-.381 10.12l5.485 15.835s-2.6 6.198-5.635 12.048c13.978 7.67 31.412 3.641 35.618-1.955.177-1.191-.068-6.545.272-12.623.354-6.492 1.266-13.827.231-17.83-1.932-7.456-5.539-14.443-12.712-14.443l-12.33.361Z"/><path fill="#455A64" d="M365.319 304.507c-4.763.656-11.759 1.606-14.181 12.743-2.423 11.137-3.144 15.22-3.144 15.22a15.884 15.884 0 0 0 5.436 3.432 16.092 16.092 0 0 0 6.377 1.012l2.464-8.567 3.048-23.84Z"/><path fill="#263238" d="M368.027 313.904c-.822 0-1.636-.16-2.395-.469a6.266 6.266 0 0 1-2.031-1.335 6.155 6.155 0 0 1-1.358-1.998 6.077 6.077 0 0 1-.476-2.356v-17.924h6.26v24.082Z"/><path fill="#FFA8A7" d="M385.53 272.902c1.892 1.098 4.219 5.77 3.988 15.555-.191 8.299-2.927 10.36-4.301 10.949-1.375.589-4.015.228-6.587-.2v4.979s3.552 4.016 3.334 6.359c-.218 2.342-5.144 2.824-8.479.588a21.556 21.556 0 0 1-5.444-5.622v-12.047a3.21 3.21 0 0 1-.983.795 3.275 3.275 0 0 1-2.485.232 3.234 3.234 0 0 1-1.118-.599c-2.845-1.86-2.954-6.452-1.293-8.031 1.66-1.58 5.212-1.124 5.879 1.151a20.533 20.533 0 0 0 9.527-2.811 15.255 15.255 0 0 0 5.365-4.705 14.928 14.928 0 0 0 2.597-6.593Z"/><path fill="#263238" d="M380.099 286.383a1.03 1.03 0 0 1-.169.578 1.06 1.06 0 0 1-.465.39 1.077 1.077 0 0 1-1.154-.195 1.037 1.037 0 0 1-.27-1.121 1.07 1.07 0 0 1 .942-.684 1.098 1.098 0 0 1 .778.286 1.039 1.039 0 0 1 .338.746Z"/><path fill="#F28F8F" d="m380.386 293.41 2.463.776a1.236 1.236 0 0 1-.613.774 1.28 1.28 0 0 1-.993.097 1.35 1.35 0 0 1-.764-.655 1.316 1.316 0 0 1-.093-.992Z"/><path fill="#263238" d="m388.796 283.17-2.136-1.459a1.234 1.234 0 0 1 .812-.559 1.268 1.268 0 0 1 .971.197c.286.2.483.501.549.841.066.339-.004.69-.196.98ZM388.307 285.619c.018.282-.077.56-.266.773a1.096 1.096 0 0 1-.741.365 1.113 1.113 0 0 1-.77-.294 1.075 1.075 0 0 1-.287-1.14 1.037 1.037 0 0 1 .546-.594 1.072 1.072 0 0 1 1.416.495c.06.124.095.258.102.395Z"/><path fill="#F28F8F" d="m383.298 285.03.177 6.278 3.361-1.031-3.538-5.247ZM378.63 299.206c-2.722-.348-8.302-1.928-9.173-4.096a5.583 5.583 0 0 0 1.96 2.771c1.66 1.405 7.213 2.998 7.213 2.998v-1.673Z"/><path fill="#37474F" d="M400.011 336.445c1.538-2.811 1.919-2.931 2.845-3.547.925-.616 6.519-1.446 8.846-1.646 2.722-.228 3.716.267 2.954 2.596a117.463 117.463 0 0 1-7.731 16.934c-.735.963-.885 1.847-3.96 2.141-3.076.295-6.492.429-7.554.496-1.062.067-2.531.321-1.579-2.758a101.092 101.092 0 0 1 4.206-10.213c1.238-2.53 1.973-4.003 1.973-4.003Z"/><path fill="#FFA8A7" d="M358.541 340.408s24.893 2.583 28.119 1.606c3.225-.977 7.553-4.15 9.88-5.461 2.328-1.312 4.002-1.419 4.002-.884s-1.987 3.547-2.45 4.779c-.463 1.231 2.15 1.245 5.553.468 3.402-.776 4.777-2.677 5.675-1.579.898 1.097-1.892 6.693-7.553 8.794-5.662 2.102-9.868.71-14.549.897-4.682.188-31.494 2.249-37.986.241a5.551 5.551 0 0 1 .344-3.035 5.647 5.647 0 0 1 1.902-2.413 19.974 19.974 0 0 1 7.063-3.413Z"/><path fill="#37474F" d="M360.338 334.116a81.98 81.98 0 0 0 2.722-8.687s-.449 6.465-2.3 9.932l-.422-1.245Z"/><path fill="#F28F8F" d="m158.924 254.51-4.423 9.397 8.234 6.934 7.118-11.82-10.929-4.511Z"/><path fill="#37474F" d="M179.23 233.013c-5.253 0-11.037 1.941-13.024 5.983-1.987 4.043-8.166 16.666-8.166 16.666s4.641 6.693 12.004 6.211l9.186-28.86Z"/><path fill="#FFA8A7" d="M202.014 382.118h-7.268v10.401h7.268v-10.401ZM176.461 369.25l-7.263.245.363 10.395 7.264-.246-.364-10.394Z"/><path fill="#37474F" d="M201.523 280.573c0 6.827.899 50.947.899 50.947.176 1.954 2.041 5.581 1.633 13.118-.545 10.24-1.443 38.685-1.443 38.685s-3.402 3.32-8.166 0c0 0-6.587-38.659-7.88-48.805-1.143-8.848-3.062-32.903-3.062-32.903l-6.737 28.312s1.184 6.693 1.456 11.351c.272 4.658-1.238 31.845-1.238 31.845a8.072 8.072 0 0 1-7.908.294s-5.825-39.649-6.573-43.892c-.749-4.243 5.103-48.952 5.103-48.952h33.916Z"/><path fill="#02897A" d="M190.595 233.334h.109a14.422 14.422 0 0 1 7.856 5.042 14.02 14.02 0 0 1 3.032 8.732v33.465c-5.091 5.448-22.838 8.031-34.025 0V245.77c0-5.556 3.144-12.249 11.813-12.744l11.215.308Z"/><path fill="#263238" d="M193.044 204.862a3.964 3.964 0 0 1 1.729.195 3.909 3.909 0 0 1 1.47.916c1.361 1.339 1.089 3.949 0 9.825l-4.247.482 1.048-11.418ZM168.261 203.229a6.892 6.892 0 0 1-2.654-.522c-1.361-.736-1.647.723-.939 1.981a5.999 5.999 0 0 0 2.042 2.247 6.133 6.133 0 0 0 2.898.979c0-.174 1.211-3.253 1.211-3.253l-2.558-1.432Z"/><path fill="#FFA8A7" d="M191.044 216.28c.639.375 1.538-.816 2.313-1.619a2.712 2.712 0 0 1 1.133-.771 2.766 2.766 0 0 1 2.63.422c.364.286.648.66.824 1.085 1.361 2.677-1.647 6.238-3.362 7.402a3.062 3.062 0 0 1-3.538.308l-.449 10.227a10.963 10.963 0 0 1-3.386 4.161 11.199 11.199 0 0 1-4.985 2.09c-6.11.817-4.845-4.136-2.844-6.572v-3.722a14.704 14.704 0 0 1-4.641.241c-.803-.214-2.722-2.476-3.933-5.006-1.361-2.838-3.661-7.871-1.62-16.398 2.191-9.169 12.249-9.45 18.156-5.756 5.907 3.695 3.702 13.908 3.702 13.908Z"/><path fill="#263238" d="M191.044 217.324c.326 0 1.524-1.954 2.314-2.677 1.088-.977-.313-9.798-.313-9.798s1.102-3.333-1.048-5.555c-2.151-2.222-6.329-1.848-9.378-1.955a27.706 27.706 0 0 1-10.888-2.155c-4.328-1.847-4.654-2.061-5.185-.201a10.206 10.206 0 0 0-.154 4.723c.319 1.565 1 3.036 1.991 4.299l2.151.777s1.156 1.017 5.199 1.499c3.727.271 7.472.204 11.187-.201 1.17-.16 1.361.951 2.055 4.016.545 2.677 1.007 7.215 2.069 7.228Z"/><path fill="#263238" d="m193.031 205.558 3.824-2.021a2.052 2.052 0 0 0-.506-.664 2.117 2.117 0 0 0-2.379-.273 2.256 2.256 0 0 0-1.07 1.295 2.213 2.213 0 0 0 .131 1.663Z"/><path fill="#F28F8F" d="M179.394 229.291a42.862 42.862 0 0 0 7.635-2.155 6.41 6.41 0 0 0 2.722-2.677 8.632 8.632 0 0 1-1.552 3.132c-1.442 1.821-8.819 3.16-8.819 3.16l.014-1.46Z"/><path fill="#263238" d="M180.755 214.888c.005.222.077.437.206.619a1.151 1.151 0 0 0 1.181.453c.22-.048.422-.158.578-.318a1.11 1.11 0 0 0 .227-1.226 1.128 1.128 0 0 0-.427-.498 1.159 1.159 0 0 0-.636-.181 1.167 1.167 0 0 0-.805.347 1.126 1.126 0 0 0-.324.804ZM181.952 210.686l2.437 1.339a1.432 1.432 0 0 0-.572-1.902 1.372 1.372 0 0 0-1.053-.106 1.343 1.343 0 0 0-.812.669Z"/><path fill="#F28F8F" d="m180.836 222.451-2.586.964a1.355 1.355 0 0 0 .697.788 1.388 1.388 0 0 0 1.059.056c.351-.135.634-.4.789-.738.156-.337.17-.722.041-1.07Z"/><path fill="#263238" d="m170.643 211.609 2.191-1.687a1.358 1.358 0 0 0-.903-.55 1.39 1.39 0 0 0-1.03.255 1.428 1.428 0 0 0-.258 1.982ZM171.323 214.58c-.004.3.113.589.324.804.212.216.501.34.806.347.308-.007.6-.133.814-.351a1.14 1.14 0 0 0 .329-.813 1.115 1.115 0 0 0-.67-1.149 1.154 1.154 0 0 0-1.555.683c-.049.15-.066.309-.048.466v.013Z"/><path fill="#F28F8F" d="m177.107 213.523-.381 6.706-3.552-1.191 3.933-5.515Z"/><path fill="#263238" d="M194.746 388.985v-1.031c-.694.295-2.314 6.359-5.186 8.942-2.3 2.048-5.444 4.431-6.219 6.693-.776 2.262 4.355 3.695 6.492 3.32 2.49-.428 6.805-2.155 7.88-3.748 1.075-1.593 1.592-3.949 2.463-5.127s2.913-2.476 3.389-3.828a8.553 8.553 0 0 0-.422-3.748c-.34-1.259-.694-2.678-1.13-2.53v.776a5.763 5.763 0 0 1-3.633 1.205c-1.048.08-3.648-.121-3.634-.924ZM169.499 377.674c-.381 0-.694.536-1.524 1.419a15.54 15.54 0 0 1-4.274 3.025c-2.722 1.339-8.002 3.4-10.398 4.458-1.483.669-1.361 2.436.123 3.453 1.483 1.018 5.281 1.741 9.758.75 2.436-.535 5.621-2.744 7.622-2.677 2 .067 5.77.094 7.254-.91 1.483-1.004.898-3.159.476-5.007-.422-1.847-1.116-5.086-1.796-4.952v.629c-.871 1.338-5.322 1.834-7.241.883v-1.071Z"/><path fill="#37474F" d="M159.782 265.326c-1.538-2.824-1.919-2.945-2.845-3.56-.925-.616-6.519-1.446-8.846-1.633-2.722-.228-3.716.267-2.954 2.583a118.432 118.432 0 0 0 7.676 16.947c.735.95.885 1.834 3.961 2.128 3.076.295 6.492.428 7.553.495 1.062.067 2.532.322 1.579-2.757a102.47 102.47 0 0 0-4.205-10.214c-1.116-2.53-1.919-3.989-1.919-3.989Z"/><path fill="#FFA8A7" d="M215.569 273.813c-.068-.884-2.722-10.869-4.083-15.488l-9.963 3.374 2.341 7.268 8.765 8.929a3.698 3.698 0 0 0 2.3-1.464c.547-.76.776-1.697.64-2.619Z"/><path fill="#FFA8A7" d="M203.824 268.967s-27.465 2.892-30.691 1.914c-3.225-.977-7.553-4.149-9.881-5.461-2.327-1.312-4.001-1.419-4.001-.87s1.987 3.534 2.45 4.765c.463 1.232-2.151 1.245-5.553.469-3.403-.777-4.777-2.677-5.675-1.58-.899 1.098 1.891 6.693 7.553 8.795 5.662 2.101 9.867.709 14.549.897 4.682.187 33.521 2.008 40.013 0a5.518 5.518 0 0 0-.342-3.029 5.625 5.625 0 0 0-1.903-2.406 21.026 21.026 0 0 0-6.519-3.494Z"/><path fill="#455A64" d="M192.895 234.097c4.314 1.405 12.875 2.115 15.638 11.298 2.763 9.182 4.151 15.139 4.151 15.139-1.633 2.142-8.166 4.618-11.16 3.695l-8.629-30.132Z"/><path fill="#37474F" d="m201.524 264.229-2.954-10.308 2.954 14.511v-4.203ZM139.571 285.887c-.136.174-1.293 2.061-1.293 2.061l-5.322 7.496-5.185 7.644a1.352 1.352 0 0 1-.669.502 1.383 1.383 0 0 1-.842.02l-.353-.121c-1.797-.656-4.492-1.767-8.071-3.386-2.872-1.339-2.722-1.727-2.722-2.209a5.825 5.825 0 0 1 0-1.151c.585-1.098 2.395-3.842 4.831-7.309 4.328-6.184 6.411-8.928 7.704-10.709a1.378 1.378 0 0 1 1.701-.441c2.327.763 7.05 2.757 9.527 3.748h.109c1.333.709.599 3.801.585 3.855Z"/><path fill="#37474F" d="m139.707 285.646-1.361 2.302-5.199 7.644-5.444 7.456a1.352 1.352 0 0 1-.669.502 1.383 1.383 0 0 1-.842.02l-.354-.121c-1.796-.656-4.491-1.767-8.07-3.386-2.872-1.339-2.722-1.727-2.722-2.209a5.825 5.825 0 0 1 0-1.151c2.722 1.178 11.337 5.194 11.623 5.046.68-.321 6.519-9.531 9.622-14.229 1.551-2.343 2.246-3.333 2.722-4.136a.873.873 0 0 0-.191-1.339h-.109c.306.159.57.385.771.662.201.276.333.595.386.931a2.036 2.036 0 0 1-.163 2.008Z"/><path fill="#000" d="m139.707 285.646-1.361 2.302-5.199 7.644-5.444 7.456a1.352 1.352 0 0 1-.669.502 1.383 1.383 0 0 1-.842.02l-.354-.121c-1.796-.656-4.491-1.767-8.07-3.386-2.872-1.339-2.722-1.727-2.722-2.209a5.825 5.825 0 0 1 0-1.151c2.722 1.178 11.337 5.194 11.623 5.046.68-.321 6.519-9.531 9.622-14.229 1.551-2.343 2.246-3.333 2.722-4.136a.873.873 0 0 0-.191-1.339h-.109c.306.159.57.385.771.662.201.276.333.595.386.931a2.036 2.036 0 0 1-.163 2.008Z" opacity=".1"/><path fill="#FAFAFA" d="m127.717 280.479 9.554 3.935-10.18 14.885-9.5-4.296 10.126-14.524Z"/><path fill="#FFA8A7" d="M125.036 332.349c2.613-.736 6.56-10.293 9.526-21.136 2.967-10.843 4.533-13.239 4.628-16.652.095-3.414-.15-7.898-.15-7.898l-5.172 7.429a13.22 13.22 0 0 0-1.361-4.109c-.667-1.339-1.919-2.396-2.939-1.593-.545.428.898 2.262.585 6.358a21.058 21.058 0 0 0 .49 4.859l-9.609 22.89 4.002 9.852Z"/><path fill="#F28F8F" d="M86.37 284.883c-3.036-.843-5.608.75-7.037 5.502a183.029 183.029 0 0 0-5.444 27.28c-.408 3.306-.87 7.322 2.341 7.63 2.45.241 9.527-1.098 10.766-2.302 1.66-1.58 1.36-7.952 1.36-7.952h-3.674s.79-5.019 1.02-6.545c.817-5.127 2.028-11.592 2.028-11.592l-1.36-12.021Z"/><path fill="#FFA8A7" d="m104.185 280.184-1.238 10.723-10.752 1.231 1.551-14.229 10.439 2.275Z"/><path fill="#263238" d="M81.17 264.536c.885-9.905 6.343-13.975 10.562-14.965 8.52-1.968 16.931.843 20.415 6.693a14.524 14.524 0 0 1 1.209 5.796c0 1.992-.412 3.964-1.209 5.796-1.851 4.15-30.936-3.346-30.936-3.346"/><path fill="#FFA8A7" d="M112.678 269.864s1.537 4.083 1.129 4.391a6.08 6.08 0 0 1-2 .348l.871-4.739Z"/><path fill="#FFA8A7" d="M108.091 256.96c2.028 1.713 5.444 4.819 4.532 13.386-1.007 8.861-3.185 11.257-4.655 12.114-.98.576-5.321-.428-7.335-1.593-2.505-1.459-8.057-5.22-9.745-10.294-2-5.97-.994-13.091 3.389-14.952a14.582 14.582 0 0 1 7.082-1.081 14.514 14.514 0 0 1 6.732 2.42Z"/><path fill="#263238" d="M110.595 257.188a15.542 15.542 0 0 1-1.462 6.87 15.803 15.803 0 0 1-4.349 5.565s-1.266-3.226-4.083-2.49c-2.817.736-2.722 4.391-.708 6.372a4.098 4.098 0 0 0 1.948 1.176c.75.201 1.542.188 2.285-.038a12.09 12.09 0 0 1-3.443 6.693 16.254 16.254 0 0 1-8.833-.471 15.99 15.99 0 0 1-7.227-5.018c-6.22-7.348-4.382-19.021 5.335-22.461a19.733 19.733 0 0 1 10.832-1.045 19.544 19.544 0 0 1 9.705 4.847ZM90.901 441.498l4.642 6.345a15.596 15.596 0 0 1-6.737 1.339c-4.151.16-5.295-1.178-5.444-1.5-.708-1.486.394-4.149.694-6.438l6.846.254Z"/><path fill="#263238" d="M95.257 444.778s5.621-.362 9.527-.844c3.906-.482 6.968 1.339 6.056 2.959-.912 1.619-3.062 2.891-6.397 4.015-2.844.951-6.274 1.634-9.254 2.504-2.98.87-5.009 1.941-6.737 1.338-1.933-.656-2.722-1.419-2.6-2.797.422-1.966.944-3.91 1.565-5.823l7.84-1.352Z"/><path fill="#F28F8F" d="M83.362 435.1s.694 5.756.748 7c.055 1.245 5.716 1.634 6.805-.629l.177-7.041-7.73.67Z"/><path fill="#FFA8A7" d="m89.064 438.647-1.973 8.741s-.204 1.057 4.437 1.74c4.64.683 11.881-2.383 13.12-2.998 1.238-.616 1.361-1.861-3.171-1.62-4.533.241-6.152.268-6.152.268l1.483-3.882-7.744-2.249Z"/><path fill="#455A64" d="M83.362 321.627c-3.88 5.93-7.554 11.151-8.343 17.817-1.66 14.082 3.783 30.172 4.94 40.586a18.64 18.64 0 0 0-3.661 10.16c0 4.31 7.064 44.91 7.064 44.91s5.13 1.539 7.716-.67l4.86-74.693-2.56-9.089-10.016-29.021Z"/><path fill="#37474F" d="m95.938 359.737-2.56-9.089a62.593 62.593 0 0 1-13.84-5.355s2.626 4.686 10.125 7.256l3.906 11.686.34 26.771 2.028-31.269Z"/><path fill="#455A64" d="M83.362 321.627c-2.069 3.32-7.037 9.022-5.975 14.484 1.28 6.693 4.9 11.284 15.992 14.537l10.398 37.039s-5.444 4.993-7.064 9.731c-1.62 4.739-7.649 41.229-7.649 41.229s1.851 2.972 7.704 2.249c0 0 20.414-45.767 21.775-48.712a14.606 14.606 0 0 0 1.729-9.945c-.653-4.792-7.594-57.292-7.594-57.292l-29.316-3.32Z"/><path fill="#FFB900" d="M81.47 288.203a5.111 5.111 0 0 1 2.227-2.6 5.242 5.242 0 0 1 3.394-.64c7.254 1.941 18.537 4.498 20.673 5.114 0 0-.966 13.747 7.391 18.593-.395 3.065-2.518 16.277-2.518 16.277s-10.044 4.792-18.306 2.436c-8.26-2.356-11.037-5.756-11.037-5.756l4.083-6.626c-.885-2.155-4.301-9.477-6.506-16.277a19.59 19.59 0 0 1 .599-10.521Z"/><path fill="#E0E0E0" d="M86.37 312.391a73.452 73.452 0 0 0 10.765 5.234 20.539 20.539 0 0 1-9.636-2.677l-1.13-2.557ZM114.978 307.639a14.873 14.873 0 0 1-6.955-6.425 14.045 14.045 0 0 0 2.215 6.102 14.319 14.319 0 0 0 4.74 4.499v-4.176Z"/><path fill="#FFA8A7" d="M107.832 290.077c4.56 1.338 7.391 1.767 9.854 3.935 3.239 2.865 6.587 19.062 7.268 22.408 1.184 5.796 2.49 11.82 1.211 14.524-.926 1.954-5.961 3.413-8.166-2.905-.463-1.339-.558-1.954-.966-3.159-2.083-6.05-5.213-17.616-5.213-17.616s-6.165-3.346-3.988-17.187Z"/><path fill="#263238" d="M85.73 253.386c-1.62.924-4.546 1.82-6.37 10.187a126.1 126.1 0 0 0-2.64 21.31c.068 2.597 5.54 9.812 17.08 9.129 11.542-.683 15.734-7.335 15.734-7.335s-5.676-2.276-5.227-12.048c0 0-2 3.869-7.485 1.928-5.485-1.941-11.092-23.171-11.092-23.171Z"/></svg>