<svg xmlns="http://www.w3.org/2000/svg" width="40" height="36" fill="none"><path fill="#02BC6B" fill-rule="evenodd" d="M3.133 34.114C1.41 34.114 0 32.718 0 31.012V20.168h7.886v-.012h4.74c1.222-.03 2.256-1.085 2.256-2.326 0-1.272-1.065-2.326-2.35-2.326H6.266v.002H0v-3.104C0 10.696 1.41 9.3 3.133 9.3h9.4c2.38 0 4.417.838 6.077 2.512 1.692 1.644 2.538 3.66 2.538 6.018 0 2.326-.814 4.342-2.475 5.986-1.66 1.644-3.666 2.513-6.015 2.544H6.266v4.652c0 1.706-1.41 3.102-3.133 3.102Z" clip-rule="evenodd"/><path fill="#02897A" fill-rule="evenodd" d="M25.098 5.7c3.46 3.329 5.205 7.474 5.205 12.187 0 4.633-1.671 8.774-5.08 12.113l-4.838-4.507c2.12-2.076 3.16-4.576 3.16-7.606 0-3.054-1.072-5.55-3.242-7.637l4.794-4.55Z" clip-rule="evenodd"/><path fill="#035B81" fill-rule="evenodd" d="M32.505 0C37.491 4.928 40 11.038 40 18.051c0 6.904-2.408 13.01-7.312 17.949l-4.67-4.517c3.654-3.679 5.443-8.14 5.443-13.432 0-5.344-1.85-9.802-5.582-13.49L32.505 0Z" clip-rule="evenodd"/><path fill="#028E37" fill-rule="evenodd" d="M0 26.386h6.266v4.627c0 1.706-1.41 3.101-3.133 3.101S0 32.72 0 31.013v-4.627Z" clip-rule="evenodd"/></svg>