<svg xmlns="http://www.w3.org/2000/svg" width="540" height="500" fill="none"><path fill="#F5F5F5" d="M86.15 433.424c101.535 58.101 266.165 58.101 367.699 0 101.535-58.102 101.535-152.305 0-210.419-101.534-58.115-266.118-58.102-367.698 0-101.581 58.101-101.488 152.317 0 210.419Z"/><path fill="#E0E0E0" d="m57.847 338.14-33.005-20.868v-77.545l33.005 20.88v77.533Z"/><path fill="#EBEBEB" d="m57.847 260.607 47.157-29.82v77.532l-47.157 29.82v-77.532Z"/><path fill="#F5F5F5" d="m105.004 230.787-47.157 29.82-33.005-20.88L72 209.906l33.005 20.881Z"/><path fill="#E0E0E0" d="m62.572 263.583 37.719-23.856.87.547v28.727l-37.73 23.856-.87-.547.011-28.727Z"/><path fill="#F5F5F5" d="m63.431 264.143 37.73-23.869V269l-37.73 23.856v-28.713Z"/><path fill="#E0E0E0" d="m78.222 259.654 6.42-4.057c.824-.534 1.497-.292 1.497.534-.06.506-.226.99-.486 1.414-.26.424-.606.776-1.012 1.028l-6.42 4.056c-.835.534-1.509.293-1.509-.534.06-.508.228-.993.49-1.417a3.107 3.107 0 0 1 1.02-1.024ZM61.702 299.926 99.42 276.07v28.727l.871.546-37.73 23.857-.86-.547v-28.727Z"/><path fill="#F5F5F5" d="m62.56 300.474 37.731-23.856v28.726L62.561 329.2v-28.726Z"/><path fill="#E0E0E0" d="m77.35 295.998 6.479-4.044c.836-.534 1.51-.293 1.51.534-.061.508-.229.993-.491 1.417a3.109 3.109 0 0 1-1.02 1.024l-6.419 4.057c-.836.534-1.51.292-1.51-.534.053-.504.211-.988.463-1.414.252-.426.59-.782.989-1.04ZM57.847 256.131l-33.005-20.88v-77.533l33.005 20.868v77.545Z"/><path fill="#EBEBEB" d="m57.847 178.586 47.157-29.82v77.545l-47.157 29.82v-77.545Z"/><path fill="#F5F5F5" d="m105.004 148.766-47.157 29.82-33.005-20.868L72 127.898l33.005 20.868Z"/><path fill="#E0E0E0" d="m62.56 181.574 37.731-23.856.87.547v28.726l-37.73 23.857-.87-.56v-28.714Z"/><path fill="#E0E0E0" d="m78.222 177.632 6.408-4.056c.836-.522 1.509-.28 1.509.547-.062.507-.23.991-.492 1.415-.262.424-.61.775-1.017 1.026l-6.408 4.057c-.836.521-1.51.292-1.51-.534.061-.509.23-.996.491-1.422.262-.426.61-.779 1.019-1.033ZM61.702 217.918l37.718-23.856v28.714l.871.547-37.73 23.856-.86-.547v-28.714Z"/><path fill="#F5F5F5" d="m62.56 218.465 37.731-23.856v28.713l-37.73 23.856v-28.713Z"/><path fill="#E0E0E0" d="m77.35 213.976 6.479-4.056c.824-.522 1.509-.28 1.509.546a3.55 3.55 0 0 1-.497 1.412 3.194 3.194 0 0 1-1.012 1.03l-6.478 4.018c-.836.522-1.51.28-1.51-.534.067-.502.237-.981.499-1.4a3.158 3.158 0 0 1 1.01-1.016ZM62.56 181.574l37.731-23.856v28.714l-37.73 23.856v-28.714Z"/><path fill="#E0E0E0" d="m119.156 171.91-20.653-13.06v25.306l20.653 13.047V171.91Z"/><path fill="#EBEBEB" d="M76.712 214.383v-35.797l8.092-5.137 1.335 2.162 23.578-14.917v32.809l-33.005 20.88Z"/><path fill="#F5F5F5" d="m76.712 214.383 2.357-31.321 33.005-20.867-2.357 31.308-33.005 20.88Z"/><path fill="#EBEBEB" d="M81.426 195.766 63.43 184.385v25.306l17.995 11.368v-25.293Z"/><path fill="#F5F5F5" d="m81.425 193.502 37.73-23.856v28.714l-37.73 23.856v-28.714Z"/><path fill="#E0E0E0" d="m96.216 189.014 6.408-4.057c.836-.521 1.509-.28 1.509.547a3.493 3.493 0 0 1-.493 1.414c-.262.424-.61.775-1.016 1.027l-6.408 4.057c-.836.521-1.51.28-1.51-.534a3.52 3.52 0 0 1 .492-1.422 3.15 3.15 0 0 1 1.018-1.032ZM81.425 193.502l-1.253-.788v28.713l1.253.789v-28.714Z"/><path fill="#EBEBEB" d="m80.172 192.714 37.718-23.869 1.266.801-37.73 23.856-1.254-.788Z"/><path fill="#E0E0E0" d="m447.778 291.165-33.017-20.881v-77.532l33.017 20.868v77.545Z"/><path fill="#EBEBEB" d="m447.778 213.62 47.156-29.82v77.545l-47.156 29.82V213.62Z"/><path fill="#F5F5F5" d="m494.934 183.8-47.156 29.82-33.017-20.868 47.168-29.833 33.005 20.881Z"/><path fill="#E0E0E0" d="m452.491 216.608 37.73-23.856.871.547-.012 28.713-37.718 23.856-.871-.546v-28.714Z"/><path fill="#F5F5F5" d="m453.362 217.156 37.73-23.857-.012 28.714-37.718 23.856v-28.713Z"/><path fill="#E0E0E0" d="m468.152 212.666 6.408-4.056c.836-.522 1.509-.28 1.509.534a3.506 3.506 0 0 1-.491 1.421c-.262.426-.61.78-1.018 1.033l-6.408 4.057c-.836.521-1.509.279-1.509-.534.061-.509.229-.996.491-1.422.262-.426.61-.779 1.018-1.033ZM451.621 252.952l37.73-23.869v28.726l.87.547-37.73 23.856-.87-.546v-28.714Z"/><path fill="#F5F5F5" d="m452.491 253.498 37.73-23.856v28.714l-37.73 23.856v-28.714Z"/><path fill="#E0E0E0" d="m467.281 249.009 6.42-4.056c.824-.522 1.498-.28 1.498.534a3.551 3.551 0 0 1-.489 1.418c-.259.425-.605.78-1.009 1.036l-6.42 4.057c-.836.521-1.509.28-1.509-.547.063-.507.232-.991.493-1.414a3.16 3.16 0 0 1 1.016-1.028Z"/><path fill="#02897A" d="M132.785 372.207s.128-20.168-11.481-35.288c-10.274-13.39-15.742-21.885-12.503-25.801 3.239-3.917 10.204-4.858 19.596 5.976 9.392 10.835 10.123 40.846 8.823 47.636l-4.435 7.477Z"/><path fill="#000" d="M132.785 372.207s.128-20.168-11.481-35.288c-10.274-13.39-15.742-21.885-12.503-25.801 3.239-3.917 10.204-4.858 19.596 5.976 9.392 10.835 10.123 40.846 8.823 47.636l-4.435 7.477Z" opacity=".2"/><path fill="#fff" d="M134.736 350.525a.547.547 0 0 1-.364-.138.647.647 0 0 1-.205-.357c-4.063-20.817-14.488-32.326-20.351-37.336a.656.656 0 0 1-.22-.421.682.682 0 0 1 .116-.469.578.578 0 0 1 .391-.242.553.553 0 0 1 .433.127c5.979 5.087 16.624 16.862 20.769 38.073a.685.685 0 0 1-.076.478.555.555 0 0 1-.365.273l-.128.012Z"/><path fill="#02897A" d="m132.344 379.698-4.725 2.988a9.414 9.414 0 0 0-2.468-3.894 8.256 8.256 0 0 0-3.893-2.07c-5.167-1.272-10.53-1.056-14.152-5.964-3.622-4.909.789-10.25 0-13.861-.789-3.612-1.3-4.654-7.778-8.266-6.478-3.611-9.032-9.601-4.156-13.657 4.876-4.057 12.77-1.081 17.553 2.543 4.249 3.179 8.289 4.018 13.037 4.667 4.748.649 12.48 3.535 11.296 15.616a102.894 102.894 0 0 1-4.714 21.898Z"/><path fill="#fff" d="M114.211 363.827a.556.556 0 0 1-.344-.124.65.65 0 0 1-.213-.321.7.7 0 0 1 .043-.485.608.608 0 0 1 .34-.316c.418-.14 10.448-3.624 14.709.115.105.109.17.258.18.417a.677.677 0 0 1-.124.441.578.578 0 0 1-.364.232.54.54 0 0 1-.412-.098c-3.761-3.307-13.536.076-13.641.114l-.174.025Z"/><path fill="#fff" d="M132.867 378.73a.54.54 0 0 1-.383-.159.638.638 0 0 1-.186-.4c-2.589-26.781-32.042-39.485-32.332-39.612a.562.562 0 0 1-.194-.132.642.642 0 0 1-.132-.204.688.688 0 0 1-.01-.49.625.625 0 0 1 .304-.347.54.54 0 0 1 .438-.022c.314.14 30.417 13.11 33.075 40.692a.679.679 0 0 1-.124.465.569.569 0 0 1-.387.235l-.069-.026Z"/><path fill="#02897A" d="M421.623 362.111c.128-.445 5.108-28.523 0-48.437-4.644-18.261-10.704-25.001-19.341-26.489-8.637-1.488-12.387 5.328-7.801 14.561 4.585 9.232 15.625 21.478 18.33 42.104 1.161 8.494 2.044 15.87 2.044 15.87l6.768 2.391Z"/><path fill="#000" d="M421.623 362.111c.128-.445 5.108-28.523 0-48.437-4.644-18.261-10.704-25.001-19.341-26.489-8.637-1.488-12.387 5.328-7.801 14.561 4.585 9.232 15.625 21.478 18.33 42.104 1.161 8.494 2.044 15.87 2.044 15.87l6.768 2.391Z" opacity=".2"/><path fill="#fff" d="M418.709 345.986a.577.577 0 0 1-.401-.213.637.637 0 0 1-.115-.215.702.702 0 0 1-.03-.246c1.161-22.737-5.619-43.032-17.774-52.989a.653.653 0 0 1-.226-.419.684.684 0 0 1 .11-.472.58.58 0 0 1 .383-.242.552.552 0 0 1 .43.115c12.456 10.173 19.445 30.927 18.226 54.083a.657.657 0 0 1-.19.434.55.55 0 0 1-.413.164Z"/><path fill="#02897A" d="M434.985 376.735c-.662-5.227 2.078-13.06 8.591-14.917 6.512-1.856 9.415-5.951 7.07-10.427-2.345-4.476-1.8-8.584 4.109-10.44 5.909-1.857 11.087-5.087 7.686-11.929-2.473-4.946-3.019-8.151 3.041-17.892 5.027-8.087.917-12.83-5.375-11.94-6.292.89-10.181 9.105-14.117 10.478-3.935 1.373-4.841-5.951-10.03-2.67-5.189 3.28-4.876 11.686-5.038 17.548-.163 5.863-.511 7.185-5.201 6.473-4.69-.712-9.288.127-9.183 12.551.081 10.656 5.27 23.856 5.27 23.856l13.177 9.309Z"/><path fill="#fff" d="M426.754 368.787h-.058a.582.582 0 0 1-.395-.238.694.694 0 0 1-.127-.474c3.274-32.033 28.373-59.056 34.92-64.536a.55.55 0 0 1 .819.12.685.685 0 0 1-.11.897c-6.467 5.404-31.241 32.071-34.468 63.659a.668.668 0 0 1-.192.405.563.563 0 0 1-.389.167Z"/><path fill="#fff" d="M438.201 334.542a.555.555 0 0 1-.33-.113.642.642 0 0 1-.216-.294.718.718 0 0 1 .024-.49.633.633 0 0 1 .324-.337c9.357-3.815 19.968-2.009 20.421-1.933a.58.58 0 0 1 .374.256.685.685 0 0 1 .102.469.673.673 0 0 1-.235.41.566.566 0 0 1-.427.124c-.104 0-10.762-1.831-19.828 1.869a.629.629 0 0 1-.209.039ZM429.865 353.794a.544.544 0 0 1-.236-.058.588.588 0 0 1-.194-.158c-3.891-4.964-6.528-10.957-7.65-17.384a.69.69 0 0 1 .106-.473.62.62 0 0 1 .168-.167.548.548 0 0 1 .646.032.659.659 0 0 1 .229.418c1.11 6.173 3.649 11.931 7.372 16.722a.704.704 0 0 1 .088.687.627.627 0 0 1-.214.274.553.553 0 0 1-.315.107Z"/><path fill="#22343D" d="M133.307 182.884v196.825L317.22 263.404l-.011-178.933-136.745 86.485-4.725-14.917-42.432 26.845Z"/><path fill="#E0E0E0" d="m133.307 379.709 9.427-178.933L326.647 84.471l-9.427 178.933-183.913 116.305Z"/><path fill="#22343D" d="m133.307 379.71 14.14-175.945L331.361 87.447 317.22 263.405 133.307 379.71Z"/><path fill="#F03E3D" d="M161.599 201.734v196.838l183.913-116.317V103.322l-136.756 86.484-4.714-14.916-42.443 26.844Z"/><path fill="#E0E0E0" d="m161.599 398.572 9.427-178.946 183.913-116.304-9.427 178.933-183.913 116.317Z"/><path fill="#F03E3D" d="m161.599 398.572 14.14-175.957 183.913-116.318-14.14 175.958-183.913 116.317Z"/><path fill="#E0E0E0" d="M317.174 460.243c-33.017-20.88-63.642-43.579-77.62-70.207l42.49-26.87 35.13 97.077Z"/><path fill="#02897A" d="M194.604 221.657v196.825l183.913-116.305V123.244L241.76 209.729l-4.713-14.917-42.443 26.845Z"/><path fill="#000" d="M194.604 221.657v196.825l183.913-116.305V123.244L241.76 209.729l-4.713-14.917-42.443 26.845Z" opacity=".2"/><path fill="#fff" d="M247.588 279.847c-.464 0-.534-.585-.534-.928V111.061a4.535 4.535 0 0 1 .51-1.849 4.09 4.09 0 0 1 1.209-1.406l132.739-83.929c.182-.124.39-.194.604-.203.464 0 .534.585.534.928v167.857a4.514 4.514 0 0 1-.509 1.855 4.105 4.105 0 0 1-1.209 1.413l-132.74 83.929a1.186 1.186 0 0 1-.604.191Z"/><path fill="#02897A" d="M382.046 24.26c.01.092.01.186 0 .279v167.857a3.902 3.902 0 0 1-.433 1.538c-.247.47-.587.875-.995 1.183l-132.74 83.929-.232.115a.877.877 0 0 1 0-.28V111.024c.04-.54.189-1.062.436-1.531a3.55 3.55 0 0 1 .992-1.178l132.74-83.929a.619.619 0 0 1 .244-.114l-.012-.013Zm.081-1.26c-.316.01-.624.111-.893.293l-132.74 83.928a4.745 4.745 0 0 0-1.418 1.646 5.253 5.253 0 0 0-.591 2.169v167.858c0 .991.453 1.564 1.161 1.564a1.67 1.67 0 0 0 .894-.293l132.74-83.928a4.687 4.687 0 0 0 1.423-1.644c.349-.663.55-1.407.585-2.171V24.564c0-.992-.452-1.576-1.161-1.564Z"/><path fill="#fff" d="M382.046 24.26c.01.092.01.186 0 .279v167.857a3.902 3.902 0 0 1-.433 1.538c-.247.47-.587.875-.995 1.183l-132.74 83.929-.232.115a.877.877 0 0 1 0-.28V111.024c.04-.54.189-1.062.436-1.531a3.55 3.55 0 0 1 .992-1.178l132.74-83.929a.619.619 0 0 1 .244-.114l-.012-.013Zm.081-1.26c-.316.01-.624.111-.893.293l-132.74 83.928a4.745 4.745 0 0 0-1.418 1.646 5.253 5.253 0 0 0-.591 2.169v167.858c0 .991.453 1.564 1.161 1.564a1.67 1.67 0 0 0 .894-.293l132.74-83.928a4.687 4.687 0 0 0 1.423-1.644c.349-.663.55-1.407.585-2.171V24.564c0-.992-.452-1.576-1.161-1.564Z" opacity=".7"/><path fill="#02897A" d="m260.625 117.433 47.157-29.82v59.64l-47.157 29.82v-59.64Z"/><path fill="#11B5E4" d="m260.625 117.433 47.157-29.82v59.64l-47.157 29.82v-59.64Z" opacity=".8"/><path fill="#fff" d="M300.712 102.478v17.931l-1.486.902v-5.48c0-3.027-2.24-4.057-5.027-2.302l-19.979 12.653c-2.775 1.755-5.027 5.633-5.027 8.66v5.481l-1.474.966v-17.892l32.993-20.919Z"/><path fill="#fff" d="M291.634 148.13c-2.415 1.526-4.377-.076-4.377-3.598v-28.701l-6.072 3.611v28.93c0 3.51-1.962 7.63-4.376 9.118l-4.389 2.772v1.907l23.579-14.916v-1.895l-4.365 2.772Z"/><path fill="#455A64" d="M317.174 84.675c0 1.653 1.358 2.124 3.018 1.081l45.88-29.057a6.318 6.318 0 0 0 2.034-2.06c.523-.85.86-1.82.984-2.836 0-1.64-1.358-2.123-3.018-1.068l-45.845 28.993a6.283 6.283 0 0 0-2.065 2.075 6.997 6.997 0 0 0-.988 2.872ZM317.174 102.478c0 1.653 1.358 2.137 3.018 1.081l45.845-28.993a6.318 6.318 0 0 0 2.034-2.06c.524-.85.861-1.82.984-2.836 0-1.64-1.358-2.124-3.018-1.068l-45.845 28.993a6.312 6.312 0 0 0-2.031 2.055 7.017 7.017 0 0 0-.987 2.828ZM317.174 120.408c0 1.653 1.358 2.136 3.018 1.081l45.845-28.994a6.302 6.302 0 0 0 2.031-2.054 7.013 7.013 0 0 0 .987-2.829c0-1.653-1.358-2.136-3.018-1.08l-45.845 28.993a6.31 6.31 0 0 0-2.031 2.054 7.012 7.012 0 0 0-.987 2.829ZM317.174 138.301c0 1.653 1.358 2.136 3.018 1.081l45.845-28.994a6.3 6.3 0 0 0 2.031-2.054 7.012 7.012 0 0 0 .987-2.829c0-1.653-1.358-2.136-3.018-1.081l-45.845 28.994a6.31 6.31 0 0 0-2.031 2.054 7.012 7.012 0 0 0-.987 2.829ZM260.625 191.99c0 1.653 1.347 2.136 3.019 1.081l102.428-64.854a6.296 6.296 0 0 0 2.034-2.053 6.997 6.997 0 0 0 .984-2.83c0-1.654-1.358-2.124-3.018-1.081l-102.428 64.854a6.283 6.283 0 0 0-2.035 2.051 6.991 6.991 0 0 0-.984 2.832ZM260.625 209.881c0 1.653 1.347 2.136 3.019 1.081l102.428-64.778a6.309 6.309 0 0 0 2.034-2.06c.524-.849.86-1.82.984-2.836 0-1.64-1.358-2.123-3.018-1.068l-102.428 64.778a6.276 6.276 0 0 0-2.035 2.052 6.981 6.981 0 0 0-.984 2.831ZM260.625 227.786c0 1.64 1.347 2.123 3.019 1.068l102.428-64.778a6.309 6.309 0 0 0 2.034-2.06c.524-.849.86-1.82.984-2.836 0-1.64-1.358-2.123-3.018-1.068L263.644 222.89a6.27 6.27 0 0 0-2.037 2.057 7.004 7.004 0 0 0-.982 2.839Z"/><path fill="#02897A" d="m194.604 418.482 33.005-158.053 183.913-116.317-33.005 158.065-183.913 116.305Z"/><path fill="#02897A" d="M239.601 272.802v117.233l42.443-26.844V245.97l-42.443 26.832Z"/><path fill="#000" d="M239.601 272.802v117.233l42.443-26.844V245.97l-42.443 26.832Z" opacity=".2"/><path fill="#fff" d="M317.255 459.48c-3.611-2.95-38.415-32.083-56.107-73.755-18.831-44.304-18.807-95.984-18.807-115.427v-.611l126.169-79.783c0 19.622 0 71.378 18.911 115.834 17.286 40.693 50.755 69.458 56.061 73.858L317.255 459.48Z"/><path fill="#02897A" d="M367.929 191.048c0 20.448.36 71.213 18.97 115.008 16.705 39.294 48.468 67.55 55.538 73.514L317.29 458.717c-4.888-4.031-38.38-32.681-55.608-73.209-18.807-44.176-18.807-95.754-18.807-115.172v-.242l125.008-79.058.046.012Zm1.115-2.212-127.33 80.533c0 18.299-.348 71.467 18.865 116.674 18.911 44.367 56.595 74.2 56.595 74.2l127.364-80.546s-37.73-29.833-56.583-74.2c-19.225-45.207-18.865-98.375-18.865-116.674l-.046.013Z"/><path fill="#fff" d="M367.929 191.048c0 20.448.36 71.213 18.97 115.008 16.705 39.294 48.468 67.55 55.538 73.514L317.29 458.717c-4.888-4.031-38.38-32.681-55.608-73.209-18.807-44.176-18.807-95.754-18.807-115.172v-.242l125.008-79.058.046.012Zm1.115-2.212-127.33 80.533c0 18.299-.348 71.467 18.865 116.674 18.911 44.367 56.595 74.2 56.595 74.2l127.364-80.546s-37.73-29.833-56.583-74.2c-19.225-45.207-18.865-98.375-18.865-116.674l-.046.013Z" opacity=".7"/><path fill="#455A64" d="m354.683 215.845-40.26 25.433a5.956 5.956 0 0 0-2.003 2.017 6.646 6.646 0 0 0-.923 2.803c.058 1.615 1.463 2.072 3.123 1.017l40.272-25.433a5.937 5.937 0 0 0 1.983-1.991 6.638 6.638 0 0 0 .931-2.765c-.069-1.679-1.451-2.136-3.123-1.081ZM355.542 233.203l-40.261 25.433a5.582 5.582 0 0 0-1.962 1.983 6.254 6.254 0 0 0-.847 2.773c.128 1.564 1.59 1.984 3.25.928l40.273-25.432a5.522 5.522 0 0 0 1.948-1.978c.486-.83.77-1.782.826-2.766-.116-1.577-1.555-1.958-3.227-.941ZM357.156 250.078l-40.272 25.433c-1.66 1.056-2.868 3.154-2.67 4.667.197 1.513 1.718 1.908 3.389.852l40.273-25.433c1.66-1.055 2.844-3.141 2.635-4.654-.209-1.513-1.695-1.92-3.355-.865ZM359.571 266.444l-40.272 25.433c-1.661 1.055-2.81 3.115-2.531 4.591.278 1.475 1.857 1.805 3.483.75l40.26-25.433c1.672-1.056 2.786-3.103 2.508-4.578-.279-1.475-1.73-1.818-3.448-.763ZM362.845 282.264l-40.273 25.433c-1.66 1.055-2.739 3.064-2.321 4.476.417 1.411 2.008 1.729 3.668.674l40.272-25.433c1.672-1.056 2.717-3.052 2.322-4.476-.394-1.425-2.008-1.73-3.668-.674ZM367.094 297.511l-98.145 62.069c-1.66 1.055-2.67 3.014-2.217 4.374.453 1.361 2.183 1.615 3.843.56l98.144-62.069c1.672-1.056 2.635-3.001 2.183-4.375-.453-1.373-2.206-1.615-3.808-.559ZM372.259 312.071l-98.132 62.069c-1.672 1.055-2.589 2.963-2.032 4.26.557 1.297 2.322 1.5 4.017.445l98.144-62.069c1.672-1.056 2.566-2.963 2.009-4.26-.558-1.297-2.334-1.488-4.006-.445ZM378.703 325.945l-98.145 62.069c-1.671 1.055-2.496 2.912-1.834 4.145.662 1.234 2.554 1.361 4.226.306l98.075-62.069c1.66-1.043 2.461-2.887 1.799-4.121-.662-1.233-2.496-1.386-4.121-.33ZM386.214 339.068l-98.133 62.056c-1.671 1.056-2.414 2.874-1.66 4.031.755 1.158 2.74 1.272 4.412.204l98.132-62.069c1.672-1.056 2.392-2.849 1.637-4.019-.754-1.17-2.716-1.259-4.388-.203ZM394.781 351.543l-98.144 62.056c-1.66 1.055-2.322 2.823-1.486 3.929.836 1.107 2.891 1.158 4.563.102l98.144-62.094c1.66-1.056 2.322-2.798 1.463-3.904-.859-1.107-2.868-1.183-4.54-.089ZM404.243 363.419l-98.11 62.057c-1.671 1.055-2.321 2.785-1.346 3.815.975 1.03 3.041 1.055 4.701 0l98.145-62.069c1.672-1.056 2.252-2.76 1.323-3.815-.928-1.056-3.018-1.03-4.713.012ZM414.692 374.776l-98.145 62.056c-1.66 1.056-2.206 2.747-1.161 3.751 1.045 1.005 3.181.967 4.853-.089l98.063-62.069c1.66-1.055 2.183-2.708 1.161-3.726-1.022-1.017-3.146-.979-4.771.077Z"/><path fill="#02897A" d="m299.829 250.549-46.297 29.247c.511 18.376 2.426 44.877 9.438 71.569l46.309-29.248c-7.023-26.692-8.939-53.206-9.45-71.568Z"/><path fill="#11B5E4" d="m299.829 250.549-46.297 29.247c.511 18.376 2.426 44.877 9.438 71.569l46.309-29.248c-7.023-26.692-8.939-53.206-9.45-71.568Z" opacity=".8"/><path fill="#02897A" d="M272.408 275.753a9.103 9.103 0 0 0-.494-3.483 8.482 8.482 0 0 0-1.758-2.952l-16.624 10.504c.139 4.857.371 10.287.778 16.137 2.162.272 4.349-.17 6.28-1.272 6.536-3.281 11.818-11.788 11.818-18.934Z"/><path fill="#fff" d="M272.408 275.753a9.103 9.103 0 0 0-.494-3.483 8.482 8.482 0 0 0-1.758-2.952l-16.624 10.504c.139 4.857.371 10.287.778 16.137 2.162.272 4.349-.17 6.28-1.272 6.536-3.281 11.818-11.788 11.818-18.934Z" opacity=".6"/><path fill="#02897A" d="M305.344 304.568c-3.088-4.26-9.369-17.421-12.051-23.156a1.226 1.226 0 0 0-.473-.537 1.08 1.08 0 0 0-1.298.131c-.179.161-.31.378-.376.622a151.681 151.681 0 0 0-5.015 33.381c-3.867-3.363-7.191-7.412-9.833-11.979a1.063 1.063 0 0 0-.452-.398.942.942 0 0 0-.575-.069.995.995 0 0 0-.519.28c-.146.146-.25.334-.3.543-5.062 21.351-2.52 42.358-2.52 42.358l37.347-23.627c-1.555-5.9-2.844-11.775-3.935-17.549Z"/><path fill="#fff" d="M305.344 304.568c-3.088-4.26-9.369-17.421-12.051-23.156a1.226 1.226 0 0 0-.473-.537 1.08 1.08 0 0 0-1.298.131c-.179.161-.31.378-.376.622a151.681 151.681 0 0 0-5.015 33.381c-3.867-3.363-7.191-7.412-9.833-11.979a1.063 1.063 0 0 0-.452-.398.942.942 0 0 0-.575-.069.995.995 0 0 0-.519.28c-.146.146-.25.334-.3.543-5.062 21.351-2.52 42.358-2.52 42.358l37.347-23.627c-1.555-5.9-2.844-11.775-3.935-17.549Z" opacity=".6"/></svg>