<svg xmlns="http://www.w3.org/2000/svg" width="540" height="500" fill="none"><path fill="#EBEBEB" d="M126.897 451.576c89.518 51.232 234.658 51.232 324.176 0 89.519-51.231 89.531-134.319 0-185.55-89.531-51.231-234.658-51.245-324.176 0-89.519 51.245-89.519 134.306 0 185.55Z"/><path fill="#02897A" d="m477.404 324.462-13.058-8.141s-3.201-29.998-1.075-53.225c2.998-32.658 22.661-71.909 46.106-62.71 23.446 9.199-10.767 42.535-18.359 70.213-7.591 27.677-13.614 53.863-13.614 53.863Z"/><path fill="#000" d="m477.404 324.462-13.058-8.141s-3.201-29.998-1.075-53.225c2.998-32.658 22.661-71.909 46.106-62.71 23.446 9.199-10.767 42.535-18.359 70.213-7.591 27.677-13.614 53.863-13.614 53.863Z" opacity=".1"/><path fill="#fff" d="M470.609 320.785a.481.481 0 0 1-.333-.129.554.554 0 0 1-.173-.332c-4.441-36.633 7.718-92.002 32.265-113.005a.475.475 0 0 1 .363-.114.472.472 0 0 1 .333.196.565.565 0 0 1 .107.396.557.557 0 0 1-.183.364c-24.281 20.785-36.288 75.72-31.885 112.014a.57.57 0 0 1-.098.4.502.502 0 0 1-.332.21h-.064Z"/><path fill="#02897A" d="m484.376 330.256-9.288-5.767s-1.581-20.582 7.833-45.587c8.186-21.708 28.519-39.834 38.742-36.035 10.224 3.799 9.971 11.573 4.986 19.727-4.986 8.154-35.314 27.596-42.273 67.662Z"/><path fill="#fff" d="M478.618 330.785a.473.473 0 0 1-.346-.179.535.535 0 0 1-.098-.182.571.571 0 0 1-.024-.209c3.062-51.231 27.229-76.426 41.754-80.266a.49.49 0 0 1 .384.062.55.55 0 0 1 .177.737.515.515 0 0 1-.308.246c-15.297 4.07-38.122 31.341-40.982 79.289a.577.577 0 0 1-.054.208.504.504 0 0 1-.302.273c-.065.021-.133.028-.201.021Z"/><path fill="#02897A" d="M101.313 328.451s1.733-30.08-14.564-50.702c-16.296-20.623-37.515-20.542-44.537-16.702-7.023 3.84-11.742 14.816.341 22.671 12.084 7.856 37.782 23.581 42.058 37.61l16.702 7.123Z"/><path fill="#000" d="M101.313 328.451s1.733-30.08-14.564-50.702c-16.296-20.623-37.515-20.542-44.537-16.702-7.023 3.84-11.742 14.816.341 22.671 12.084 7.856 37.782 23.581 42.058 37.61l16.702 7.123Z" opacity=".1"/><path fill="#fff" d="M93.645 320.921a.622.622 0 0 1-.423-.177.713.713 0 0 1-.21-.433c-3.353-33.282-34.377-51.72-46.739-53.809a.631.631 0 0 1-.42-.271.718.718 0 0 1-.118-.51.714.714 0 0 1 .253-.449.602.602 0 0 1 .475-.127c12.653 2.13 44.373 20.989 47.815 55.016a.728.728 0 0 1-.14.501.614.614 0 0 1-.43.246l-.063.013Z"/><path fill="#02897A" d="M87.61 313.282c-4.087-9.985-8.705-14.463-21.99-12.075-13.286 2.388-11.388 2.022-27.647-2.442-6.858-1.872-14.563-2.171-21.143 1.004-5.554 2.714-9.704 8.141-4.327 13.92 6.048 6.459 15.07 8.67 21.75 14.355 1.516 1.149 2.72 2.708 3.492 4.518 1.759 4.803-1.758 10.216-.734 15.25 1.025 5.033 5.96 7.72 10.59 8.045 4.632.326 9.2-1.166 13.818-1.736 4.618-.57 9.806 0 12.994 3.677 3.416 3.894 3.505 10.121 6.68 14.259 4.758 6.201 16.45 7.924 22.776 4.07l16.562-10.243c10.945-15.82-6.326-28.356-15.373-40.635-4.39-5.983-14.994-5.956-17.448-11.967Z"/><path fill="#fff" d="M110.17 356.333a.57.57 0 0 1-.308-.084.616.616 0 0 1-.224-.242c-18.89-32.82-70.324-49.427-88.519-50.783a.622.622 0 0 1-.428-.232.71.71 0 0 1 .062-.952.617.617 0 0 1 .455-.173c18.435 1.357 70.362 18.208 89.506 51.462a.74.74 0 0 1 .069.515.692.692 0 0 1-.284.421.71.71 0 0 1-.329.068Z"/><path fill="#fff" d="M50.335 340.865a.568.568 0 0 1-.284-.068.618.618 0 0 1-.222-.203.716.716 0 0 1 .126-.95c.658-.529 16.348-12.875 31.632-13.119a.59.59 0 0 1 .447.189.702.702 0 0 1 .186.475.723.723 0 0 1-.176.484.596.596 0 0 1-.444.208c-14.842.231-30.696 12.727-30.86 12.849a.556.556 0 0 1-.405.135Z"/><path fill="#37474F" d="M108.993 367.865a13.25 13.25 0 0 0 1.654 5.579 12.236 12.236 0 0 0 3.825 4.176l153.516 95.041a11.448 11.448 0 0 0 5.479 1.405c1.903 0 3.78-.481 5.478-1.405l210.036-130.045c1.656-.937 3.042-2.341 4.008-4.06a11.634 11.634 0 0 0 1.478-5.696c0-2.007-.511-3.976-1.478-5.695-.966-1.719-2.352-3.123-4.008-4.06l-153.503-94.973a11.448 11.448 0 0 0-5.479-1.405c-1.904 0-3.781.481-5.478 1.405L114.472 358.137a12.241 12.241 0 0 0-3.82 4.164 13.249 13.249 0 0 0-1.659 5.564Z"/><path fill="#263238" d="m172.333 322.291-57.861 35.845c-1.656.937-3.041 2.341-4.008 4.06a11.643 11.643 0 0 0-1.477 5.696c0 2.007.511 3.976 1.477 5.695.967 1.719 2.352 3.123 4.008 4.06l153.516 95.041a10.569 10.569 0 0 0 5.479 1.356V322.291H172.333Z"/><path fill="#455A64" d="M103.843 358.327a12.37 12.37 0 0 1-3.676-4.33 13.335 13.335 0 0 1-1.46-5.642V151.909a13.664 13.664 0 0 1 1.603-5.791 12.634 12.634 0 0 1 3.875-4.384L314.221 11.688a9.804 9.804 0 0 1 5.283-1.686 9.764 9.764 0 0 1 5.338 1.476c1.621 1.003 2.956 2.461 3.862 4.217a11.695 11.695 0 0 1 1.283 5.748v196.459a13.713 13.713 0 0 1-1.606 5.79 12.673 12.673 0 0 1-3.873 4.386L114.472 358.137a11.145 11.145 0 0 1-5.293 1.455 11.11 11.11 0 0 1-5.336-1.265Z"/><path fill="#263238" d="m124.417 161.04-24.104-14.924a12.698 12.698 0 0 0-1.53 5.793v196.445a13.334 13.334 0 0 0 1.46 5.643 12.37 12.37 0 0 0 3.676 4.33 11.109 11.109 0 0 0 5.332 1.248 11.15 11.15 0 0 0 5.284-1.466L138.5 343.28l-14.083-182.24Z"/><path fill="#37474F" d="M108.993 158.286v196.431c0 3.745 2.455 5.265 5.479 3.392l210.036-130.032a12.664 12.664 0 0 0 3.873-4.386 13.694 13.694 0 0 0 1.606-5.789V21.456c0-3.744-2.455-5.264-5.479-3.392L114.472 148.11a12.637 12.637 0 0 0-3.876 4.384 13.675 13.675 0 0 0-1.603 5.792Z"/><path fill="#455A64" d="m114.472 364.92 153.516 94.973a11.447 11.447 0 0 0 5.478 1.405c1.904 0 3.781-.481 5.479-1.405l210.036-130.045c3.037-1.872 3.037-4.912 0-6.784l-153.503-94.973a11.448 11.448 0 0 0-5.479-1.405c-1.904 0-3.781.481-5.479 1.405L114.472 358.136c-3.037 1.846-3.037 4.885 0 6.784Z"/><path fill="#fff" d="M117.42 159.005 321.572 32.623c1.81-1.126 3.29-.217 3.29 2.035V204.7a8.244 8.244 0 0 1-.966 3.473 7.608 7.608 0 0 1-2.324 2.632L117.42 337.188c-1.822 1.126-3.29.217-3.29-2.035V165.11a8.204 8.204 0 0 1 .962-3.475 7.586 7.586 0 0 1 2.328-2.63Z"/><path fill="#263238" d="m132.287 359.805 194.966-120.751a5.728 5.728 0 0 1 2.74-.702c.952 0 1.89.24 2.739.702l9.983 6.173c.331.12.618.349.821.653.203.304.313.669.313 1.043 0 .374-.11.739-.313 1.043-.203.304-.49.533-.821.653L147.711 369.357a5.74 5.74 0 0 1-2.74.702c-.952 0-1.89-.241-2.739-.702l-9.945-6.16a1.68 1.68 0 0 1-.821-.652 1.886 1.886 0 0 1-.313-1.044c0-.374.11-.739.313-1.043.203-.304.49-.532.821-.653ZM157.997 375.774l194.954-120.751a5.751 5.751 0 0 1 2.746-.702c.954 0 1.894.24 2.746.702l61.328 37.989c.33.12.617.348.82.653.204.304.313.669.313 1.043 0 .374-.109.739-.313 1.043-.203.304-.49.533-.82.653L225.032 416.911a5.751 5.751 0 0 1-2.746.702c-.954 0-1.894-.24-2.746-.702l-61.543-37.813a1.675 1.675 0 0 1-.776-.652 1.87 1.87 0 0 1-.294-1.01c0-.36.103-.713.294-1.01.191-.296.462-.524.776-.652Z"/><path fill="#455A64" d="m332.757 309.293 6.112-3.785c.253-.163.24-.421 0-.597l-7.061-4.369a1.005 1.005 0 0 0-.974 0l-6.098 3.785c-.266.163-.254.421 0 .597l7.06 4.369a1.006 1.006 0 0 0 .961 0Zm-12.045-14.924-6.099 3.785c-.265.149-.253.421 0 .597l7.061 4.369a1.004 1.004 0 0 0 .974 0l6.111-3.786c.253-.162.241-.434 0-.597l-7.073-4.368a.994.994 0 0 0-.974 0Zm-19.713 12.21-10.337 6.391c-.253.163-.241.434 0 .61l7.06 4.369a1.005 1.005 0 0 0 .974 0l10.325-6.39c.265-.163.24-.434 0-.597l-7.06-4.383a.987.987 0 0 0-.962 0Zm10.793-6.688-6.099 3.785c-.266.163-.253.434 0 .597l7.06 4.369a1.01 1.01 0 0 0 .975 0l6.111-3.786c.253-.162.24-.42 0-.597l-7.073-4.463a1 1 0 0 0-.974 0v.095ZM287.84 314.72l-6.099 3.772c-.265.163-.24.434 0 .61l7.061 4.369a1.016 1.016 0 0 0 .961 0l6.112-3.785c.253-.163.24-.434 0-.597l-7.061-4.369a1.005 1.005 0 0 0-.974 0Zm-8.857 5.522-6.099 3.785c-.265.15-.24.421 0 .597l7.061 4.369a1.005 1.005 0 0 0 .974 0l6.111-3.785c.253-.163.241-.434 0-.597l-7.136-4.464a1.005 1.005 0 0 0-.974 0l.063.095Zm27.773 17.774 6.099-3.786c.265-.163.24-.42 0-.597l-7.061-4.369a.98.98 0 0 0-.961 0l-6.112 3.786c-.253.163-.24.42 0 .597l7.061 4.369a.993.993 0 0 0 .911-.068l.063.068Zm-8.933 5.522 6.111-3.786c.253-.149.241-.42 0-.597l-7.06-4.369a1.01 1.01 0 0 0-.974 0l-6.099 3.786c-.266.163-.24.434 0 .597l7.06 4.369a.996.996 0 0 0 .457.076.995.995 0 0 0 .442-.144l.063.068Zm-8.92 5.522 6.111-3.772c.253-.163.241-.434 0-.611l-7.06-4.369a1.042 1.042 0 0 0-.974 0l-6.099 3.786c-.266.163-.24.434 0 .597l7.048 4.369a.993.993 0 0 0 .911-.068l.063.068Zm-8.857 5.522 6.111-3.772c.253-.163.241-.434 0-.611l-7.06-4.369a1.01 1.01 0 0 0-.974 0l-6.099 3.772c-.266.163-.253.434 0 .611l7.06 4.369c.276.096.576.071.835-.068l.127.068Zm43.918-39.672 6.111-3.785c.253-.15.24-.421 0-.597l-7.06-4.369a1.043 1.043 0 0 0-.975 0l-6.098 3.785c-.266.163-.253.434 0 .597l7.06 4.369a.99.99 0 0 0 .835-.068l.127.068Zm-8.225 17.638 13.615-8.439c.253-.149.24-.421 0-.597l-17.145-10.61a1.005 1.005 0 0 0-.974 0l-7.035 4.369c-.266.149-.24.42 0 .597l9.085 5.617c.278.176.291.447 0 .61l-5.732 3.338c-.253.149-.24.42 0 .597l7.086 4.328a.998.998 0 0 0 .974.068l.126.122Zm-45.613-6.784-6.098 3.785c-.266.163-.254.421 0 .597l7.06 4.369a1.005 1.005 0 0 0 .974 0l6.111-3.785c.253-.163.241-.421 0-.597l-7.06-4.369a1.006 1.006 0 0 0-1.113-.068l.126.068Zm-8.857 5.522-6.301 3.785c-.253.163-.24.435 0 .597l7.06 4.369c.151.083.318.127.487.127.17 0 .337-.044.488-.127l6.111-3.785c.253-.149.24-.421 0-.597l-7.111-4.41a1.006 1.006 0 0 0-.924-.027l.19.068Zm-44.816 61.868a1 1 0 0 0 .974 0l6.112-3.785c.253-.149.24-.421 0-.597l-7.086-4.342a1.01 1.01 0 0 0-.974 0l-6.099 3.786c-.266.163-.253.434 0 .597l7.073 4.341Zm-26.786-17.746-6.111 3.785c-.253.163-.241.421 0 .597l7.06 4.369a1.005 1.005 0 0 0 .974 0l6.112-3.785c.253-.163.24-.421 0-.597l-7.061-4.369a.996.996 0 0 0-.936 0h-.038Zm14.361 12.957a1.005 1.005 0 0 0 .974 0l6.099-3.785c.266-.15.24-.421 0-.597l-7.048-4.369a1.005 1.005 0 0 0-.974 0l-6.111 3.785c-.253.163-.241.434 0 .597l7.06 4.369Zm28.178 8.14 6.111-3.785c.253-.163.24-.42 0-.597l-7.06-4.369a1.01 1.01 0 0 0-.974 0l-6.099 3.786c-.266.149-.24.42 0 .597l7.048 4.368a1.005 1.005 0 0 0 1.012.014l-.038-.014Zm-9.895 5.428a1.01 1.01 0 0 0 .975 0l6.111-3.786c.253-.149.24-.42 0-.597l-7.06-4.369a1.01 1.01 0 0 0-.975 0l-6.098 3.786c-.266.163-.253.434 0 .597l7.047 4.369Zm-23.724-32.129-6.098 3.786c-.266.149-.253.42 0 .597l7.06 4.369a1.01 1.01 0 0 0 .974 0l6.112-3.786c.253-.163.24-.434 0-.597l-7.061-4.369a1.002 1.002 0 0 0-.949.082l-.038-.082Zm44.614-27.61-6.111 3.772c-.253.163-.241.434 0 .597l7.06 4.383a1.04 1.04 0 0 0 .974 0l6.099-3.772c.266-.163.253-.434 0-.611l-7.06-4.369a1.002 1.002 0 0 0-.924.082l-.038-.082Zm-35.605 22.17-6.099 3.772c-.265.162-.253.434 0 .61l7.061 4.369a1.04 1.04 0 0 0 .974 0l6.111-3.785c.253-.163.241-.435 0-.597l-7.06-4.383a1.035 1.035 0 0 0-.987.014Zm44.614-27.624-6.162 3.758c-.253.163-.24.435 0 .597l7.06 4.369a1.005 1.005 0 0 0 .974 0l6.099-3.772c.266-.162.253-.434 0-.61l-7.035-4.315a1.053 1.053 0 0 0-.49-.139 1.049 1.049 0 0 0-.497.112h.051Zm-17.841 11.058-6.111 3.772c-.253.162-.24.434 0 .61l7.06 4.369c.152.08.319.122.487.122.169 0 .336-.042.488-.122l6.098-3.772c.266-.163.241-.434 0-.61l-7.047-4.369a1.044 1.044 0 0 0-.513-.136c-.178 0-.354.047-.512.136h.05Zm-8.932 5.522-6.099 3.772c-.266.162-.24.434 0 .61l7.06 4.369a1.043 1.043 0 0 0 .974 0l6.099-3.772c.253-.163.24-.434 0-.61l-7.06-4.369a1.044 1.044 0 0 0-.513-.136c-.178 0-.354.047-.512.136h.051Zm-8.984 5.522-6.099 3.772c-.265.162-.24.434 0 .61l7.048 4.369a1.005 1.005 0 0 0 .974 0l6.112-3.772c.253-.163.24-.434 0-.61l-7.061-4.369a1.04 1.04 0 0 0-.974 0Zm45.613 6.784 6.099-3.772c.266-.163.253-.434 0-.611l-7.073-4.463a1.028 1.028 0 0 0-.974 0l-6.112 3.771c-.253.163-.24.435 0 .611l7.061 4.369a1.005 1.005 0 0 0 1.012.027l-.013.068Zm78.384-83.468-6.111 3.785c-.253.163-.24.421 0 .597l7.06 4.369a1.005 1.005 0 0 0 .974 0l6.099-3.785c.266-.163.253-.421 0-.597l-7.06-4.369a1.007 1.007 0 0 0-.481-.124c-.167 0-.332.043-.481.124Zm-10.805 6.689-6.099 3.785c-.266.149-.24.421 0 .597l7.048 4.369a1.04 1.04 0 0 0 .974 0l6.111-3.786c.253-.162.241-.434 0-.597l-7.06-4.368a.99.99 0 0 0-.987-.068l.013.068Zm19.725-12.211-6.098 3.785c-.266.149-.253.421 0 .597l7.06 4.369a1.005 1.005 0 0 0 .974 0l6.112-3.786c.253-.162.24-.434 0-.596l-7.061-4.369a1.008 1.008 0 0 0-1.05-.068l.063.068Zm-46.182 51.068 6.111-3.785c.253-.163.241-.434 0-.597l-7.06-4.369a1.005 1.005 0 0 0-.974 0l-6.099 3.785c-.266.15-.253.421 0 .597l7.06 4.369a.996.996 0 0 0 .949-.068l.013.068Zm56.077-56.563a1.005 1.005 0 0 0-.974 0l-6.099 3.785c-.266.149-.253.421 0 .597l7.06 4.369a1.043 1.043 0 0 0 .975 0l6.111-3.785c.253-.163.24-.435 0-.597l-7.073-4.369Zm-88.266 88.895 6.111-3.772c.254-.163.241-.434 0-.611l-7.098-4.3a.994.994 0 0 0-.974 0l-6.099 3.771c-.265.163-.253.434 0 .611l7.061 4.369a1.044 1.044 0 0 0 .999-.068Zm109.409-67.73 6.111-3.785c.253-.149.24-.421 0-.597l-7.098-4.409a1 1 0 0 0-.974 0l-6.099 3.785c-.266.163-.253.434 0 .597l7.06 4.369a1.001 1.001 0 0 0 1 .04Zm-18.979-.719 6.111-3.785c.253-.163.24-.421 0-.597l-7.06-4.369a1.012 1.012 0 0 0-.488-.127 1.01 1.01 0 0 0-.487.127l-6.098 3.786c-.266.162-.253.42 0 .596l7.06 4.369a1.007 1.007 0 0 0 .936.068l.026-.068Zm7.933-14.273a1.005 1.005 0 0 0-.974 0l-6.099 3.785c-.266.15-.253.421 0 .597l7.06 4.369a1 1 0 0 0 .974 0l6.112-3.785c.253-.163.24-.434 0-.597l-7.073-4.369Zm1.885-1.167 17.132 10.61a1.005 1.005 0 0 0 .974 0l6.112-3.785c.253-.163.24-.421 0-.597l-17.145-10.61a1.005 1.005 0 0 0-.974 0l-6.099 3.785c-.329.15-.304.421-.025.597h.025Zm-20.7 12.211-6.111 3.785c-.253.163-.241.435 0 .597l7.06 4.369a1 1 0 0 0 .974 0l6.099-3.785c.266-.149.253-.421 0-.597l-7.06-4.369a1.01 1.01 0 0 0-.937-.027l-.025.027Zm-67.148 41.571-6.137 3.786c-.253.162-.24.434 0 .597l7.061 4.368a.994.994 0 0 0 .974 0l6.098-3.785c.266-.149.254-.421 0-.597l-7.06-4.369a1.007 1.007 0 0 0-.961-.027l.025.027Zm87.14-32.101a.994.994 0 0 0 .974 0l6.111-3.785c.253-.149.241-.421 0-.597l-7.06-4.369a1.043 1.043 0 0 0-.974 0l-6.099 3.786c-.266.162-.253.434 0 .597l7.048 4.368Zm-78.22 26.579-6.099 3.786c-.265.162-.253.42 0 .597l7.061 4.368a.994.994 0 0 0 .974 0l6.111-3.785c.253-.163.241-.421 0-.597l-7.06-4.369a1 1 0 0 0-1.012-.027l.025.027Zm-66.882 63.252a.994.994 0 0 0 .974 0l6.111-3.785c.253-.163.24-.421 0-.597l-7.06-4.369a1.01 1.01 0 0 0-.974 0l-6.099 3.786c-.266.162-.24.42 0 .597l7.048 4.368Zm-13.412-13.567-6.112 3.785c-.253.163-.24.421 0 .597l7.061 4.369a1.005 1.005 0 0 0 .974 0l6.098-3.785c.266-.163.254-.421 0-.597l-7.06-4.369a.998.998 0 0 0-.987 0h.026Zm23.319 8.045 6.098-3.785c.253-.163.241-.434 0-.597l-7.06-4.369a1.01 1.01 0 0 0-.974 0l-6.162 3.745c-.253.149-.241.421 0 .597l7.06 4.369a1.004 1.004 0 0 0 1.012.04h.026Zm8.92-5.522 6.099-3.785c.265-.163.24-.434 0-.597l-7.048-4.369a1.01 1.01 0 0 0-.974 0l-6.112 3.772c-.253.163-.24.434 0 .611l7.061 4.368a1.034 1.034 0 0 0 .999 0h-.025Zm8.857-5.535 6.098-3.772c.266-.163.254-.434 0-.597l-7.06-4.382a1.04 1.04 0 0 0-.974 0l-6.111 3.771c-.253.163-.241.435 0 .611l7.06 4.369a1.006 1.006 0 0 0 1.012 0h-.025Zm-32.239-2.51-6.112 3.785c-.253.149-.24.421 0 .597l7.061 4.369a1.005 1.005 0 0 0 .974 0l6.111-3.785c.253-.163.24-.435 0-.597l-7.06-4.369a1.002 1.002 0 0 0-.936 0h-.038Zm8.92-5.522-6.099 3.772c-.266.162-.253.434 0 .61l7.06 4.369c.152.08.319.122.488.122.168 0 .335-.042.487-.122l6.225-3.758c.253-.163.24-.435 0-.597l-7.06-4.369a1.009 1.009 0 0 0-1.063-.027h-.038Zm35.693-22.088-6.022 3.772c-.254.162-.241.434 0 .61l7.06 4.369a1.04 1.04 0 0 0 .974 0l6.099-3.772c.265-.163.24-.434 0-.61l-7.048-4.369a1.002 1.002 0 0 0-1.025 0h-.038Zm-8.933 5.522-6.098 3.772c-.253.162-.241.434 0 .61l7.06 4.369a1.04 1.04 0 0 0 .974 0l6.099-3.772c.266-.163.24-.434 0-.61l-7.06-4.369a1.041 1.041 0 0 0-.937 0h-.038Zm17.853-11.058-6.086 3.786c-.253.162-.24.434 0 .596l7.061 4.383a1.04 1.04 0 0 0 .974 0l6.099-3.786c.265-.149.253-.42 0-.597l-7.061-4.368a1.036 1.036 0 0 0-.949-.014h-.038Zm-35.693 22.102-6.099 3.772c-.265.162-.253.434 0 .61l7.061 4.369a1.04 1.04 0 0 0 .974 0l6.111-3.785c.253-.163.241-.435 0-.597l-7.06-4.383a1.027 1.027 0 0 0-.949.014h-.038Zm8.92-5.522-6.098 3.772c-.266.162-.241.434 0 .61l7.06 4.369a.982.982 0 0 0 .961 0l6.112-3.772c.253-.163.24-.434 0-.61l-7.061-4.369a1.034 1.034 0 0 0-.936 0h-.038Zm-6.503 38.993 6.098-3.785c.253-.163.241-.434 0-.597l-7.06-4.369a1.005 1.005 0 0 0-.974 0l-6.099 3.785c-.266.15-.24.421 0 .597l7.06 4.369c.156.09.33.138.506.138.177 0 .351-.048.507-.138h-.038Zm-52.32-5.725-7.06-4.369a.994.994 0 0 0-.974 0l-6.086 3.812c-.253.163-.24.421 0 .597l7.06 4.369a1.005 1.005 0 0 0 .974 0l6.099-3.785c.278-.122.266-.394-.013-.624Zm13.362 4.205-7.061-4.368a1.013 1.013 0 0 0-.961 0l-9.338 5.847c-.253.163-.24.435 0 .597l7.06 4.369c.151.083.318.127.488.127.169 0 .336-.044.487-.127l9.388-5.807c.291-.136.215-.407-.063-.583v-.055Zm-24.192-12.658-7.086-4.315a1.01 1.01 0 0 0-.974 0l-7.491 4.627c-.253.163-.24.434 0 .611l7.061 4.368a.994.994 0 0 0 .974 0l7.503-4.64c.304-.149.291-.42.013-.597v-.054Zm5.757-3.568a1.004 1.004 0 0 0 .974 0l6.099-3.786c.265-.149.253-.42 0-.597l-7.061-4.368a.994.994 0 0 0-.974 0l-6.111 3.785c-.253.163-.241.434 0 .597l7.073 4.369Zm30.872 21.016-7.022-4.315a1.04 1.04 0 0 0-.974 0l-11.742 7.273c-.253.162-.24.434 0 .597l7.06 4.382c.152.08.319.122.487.122.169 0 .336-.042.488-.122l11.741-7.272c.253-.163.241-.435-.038-.611v-.054Zm5.859 8.859-7.061-4.287a1.005 1.005 0 0 0-.974 0l-7.516 4.654c-.253.163-.24.434 0 .61l7.061 4.369a1.04 1.04 0 0 0 .974 0l7.516-4.654c.291-.19.278-.461 0-.637v-.055Zm29.607-70.945a1 1 0 0 0 .974 0l6.099-3.771c.266-.163.24-.434 0-.611l-7.06-4.369a1.042 1.042 0 0 0-.974 0l-6.099 3.84c-.253.163-.24.434 0 .597l7.06 4.314Zm-17.853 11.058a1.043 1.043 0 0 0 .974 0l6.112-3.772c.253-.163.24-.434 0-.61l-7.061-4.369a1.04 1.04 0 0 0-.974 0l-6.099 3.772c-.265.163-.24.434 0 .61l7.048 4.369Zm-39.565 24.544c.15.083.318.127.487.127.169 0 .336-.044.487-.127l6.099-3.785c.265-.163.253-.421 0-.597l-7.06-4.369a1 1 0 0 0-.975 0l-6.111 3.785c-.253.163-.24.421 0 .597l7.073 4.369Zm48.498-29.998a1.017 1.017 0 0 0 .962 0l6.111-3.772c.253-.163.24-.434 0-.61l-7.06-4.369a1.012 1.012 0 0 0-.488-.127 1.01 1.01 0 0 0-.487.127l-6.098 3.772c-.266.162-.241.434 0 .61l7.06 4.369Zm-17.853 11.044c.151.083.318.127.487.127.169 0 .337-.044.487-.127l6.111-3.772c.253-.163.241-.434 0-.61l-7.06-4.369a1.04 1.04 0 0 0-.974 0l-6.099 3.772c-.265.162-.253.434 0 .61l7.048 4.369Zm2.062 55.071a1.04 1.04 0 0 0-.974 0l-9.388 5.793c-.253.163-.241.434 0 .611l7.06 4.369a1.01 1.01 0 0 0 .974 0l9.389-5.807c.265-.163.24-.435 0-.611l-7.061-4.355Zm-14.867-47.12a1.042 1.042 0 0 0 .975 0l6.111-3.786c.253-.163.24-.434 0-.597l-7.06-4.369a1.01 1.01 0 0 0-.975 0l-6.098 3.786c-.266.149-.253.42 0 .597l7.047 4.369Zm-8.92 5.427a1.01 1.01 0 0 0 .974 0l6.112-3.786c.253-.163.24-.434 0-.597l-7.061-4.369a1.004 1.004 0 0 0-.974 0l-6.099 3.786c-.265.149-.253.42 0 .597l7.048 4.369Zm189.083-60.648a1.007 1.007 0 0 0-.974 0l-15.082 9.281c-.253.162-.241.434 0 .61l7.06 4.369a1.04 1.04 0 0 0 .974 0l15.108-9.24c.265-.162.253-.434 0-.61l-7.086-4.41Zm-19.726 12.211a1.004 1.004 0 0 0-.974 0l-6.098 3.772c-.266.163-.253.434 0 .611l7.06 4.368a1.028 1.028 0 0 0 .974 0l6.111-3.771c.253-.163.241-.435 0-.611l-7.073-4.369Zm-120.846 71.705 6.098-3.785c.266-.163.241-.434 0-.597l-7.047-4.383a1.042 1.042 0 0 0-.974 0l-6.112 3.772c-.253.163-.24.434 0 .611l7.061 4.368a1.025 1.025 0 0 0 .974.014Zm103.006-60.661a1.04 1.04 0 0 0-.974 0l-6.112 3.772c-.253.163-.24.434 0 .611l7.061 4.368a.994.994 0 0 0 .974 0l6.099-3.771c.265-.163.253-.435 0-.611l-7.048-4.369Zm46.486-28.777a1.04 1.04 0 0 0-.974 0l-6.099 3.759c-.265.162-.253.434 0 .597l7.061 4.382a1.04 1.04 0 0 0 .974 0l6.111-3.772c.253-.163.241-.434 0-.61l-7.073-4.356Zm15.981-1.153-17.145-10.61a1.004 1.004 0 0 0-.974 0l-6.099 3.786c-.265.162-.253.434 0 .597l17.145 10.609a1 1 0 0 0 .974 0l6.111-3.785c.279-.149.266-.42-.012-.597Zm-95.807 50.58a1.005 1.005 0 0 0-.974 0l-7.516 4.654c-.253.163-.24.434 0 .597l7.06 4.369a1.01 1.01 0 0 0 .974 0l7.516-4.654c.253-.163.241-.434 0-.597l-7.06-4.369Zm22.535-13.961a1.012 1.012 0 0 0-.488-.127 1.01 1.01 0 0 0-.487.127l-9.388 5.807c-.253.163-.24.434 0 .597l7.06 4.382a1.031 1.031 0 0 0 .974 0l9.389-5.807c.253-.162.24-.434 0-.61l-7.06-4.369Zm-43.197 26.742a1.043 1.043 0 0 0-.974 0l-50.244 31.097c-.253.163-.241.434 0 .61l7.06 4.369a1.04 1.04 0 0 0 .974 0l50.244-31.11c.253-.163.241-.435 0-.611l-7.06-4.355Zm-53.066 32.861a.994.994 0 0 0-.974 0l-7.503 4.653c-.266.163-.253.434 0 .597l7.06 4.369a1.005 1.005 0 0 0 .974 0l7.554-4.599c.253-.163.241-.435 0-.597l-7.111-4.423Zm63.391-39.251a1.034 1.034 0 0 0-.975 0l-7.503 4.653c-.265.163-.253.434 0 .611l7.061 4.369a1.04 1.04 0 0 0 .974 0l7.516-4.654c.265-.149.24-.421 0-.597l-7.073-4.382Zm-73.715 45.627a1.046 1.046 0 0 0-.975 0l-7.515 4.654c-.253.163-.241.434 0 .611l7.06 4.368a1.028 1.028 0 0 0 .974 0l7.503-4.64c.266-.163.253-.434 0-.61l-7.047-4.383Zm94.377-58.435a1.047 1.047 0 0 0-.488-.122c-.168 0-.335.042-.487.122l-7.503 4.64c-.265.163-.253.434 0 .61l7.061 4.369a1.04 1.04 0 0 0 .974 0l7.516-4.654c.265-.162.24-.434 0-.61l-7.073-4.355Zm31.935-19.768a.994.994 0 0 0-.974 0l-6.099 3.772c-.265.162-.253.434 0 .61l7.061 4.369a1.04 1.04 0 0 0 .974 0l6.111-3.772c.253-.163.241-.434 0-.611l-7.073-4.368Zm19.549-15.223 6.098-3.772c.266-.163.253-.434 0-.61l-7.06-4.369a1.04 1.04 0 0 0-.974 0l-6.111 3.785c-.253.163-.241.434 0 .597l7.06 4.382a1.033 1.033 0 0 0 .987 0v-.013Zm-39.856-.19 6.111-3.785c.253-.163.24-.435 0-.597l-7.06-4.369a1.012 1.012 0 0 0-.488-.127 1.01 1.01 0 0 0-.487.127l-6.098 3.785c-.266.163-.241.421 0 .597l7.047 4.369c.151.083.318.127.487.127.17 0 .337-.044.488-.127Zm-20.245 37.487 17.841-11.044c.253-.163.24-.434 0-.61l-7.061-4.369a1.04 1.04 0 0 0-.974 0l-17.84 11.057c-.253.15-.241.421 0 .597l7.06 4.369a.996.996 0 0 0 .974-.068v.068Zm50.206-31.707a1.043 1.043 0 0 0 .975 0l6.098-3.772c.266-.163.253-.434 0-.611l-7.06-4.368a1 1 0 0 0-.974 0l-6.112 3.771c-.253.163-.24.435 0 .611l7.073 4.369Zm-9.11-6.228 6.099-3.772c.266-.162.253-.434 0-.61l-7.06-4.369a1.043 1.043 0 0 0-.975 0l-6.111 3.785c-.253.163-.24.435 0 .597l7.06 4.383a1.039 1.039 0 0 0 .987-.082v.068Zm-50.016 43.417 6.099-3.786c.265-.163.24-.42 0-.597l-7.061-4.369a1.004 1.004 0 0 0-.974 0l-6.137 3.772c-.265.163-.24.421 0 .597l7.061 4.369c.164.1.35.152.539.15.189-.003.374-.059.536-.164l-.063.028Zm39.401-25.019a1.04 1.04 0 0 0 .974 0l6.111-3.772c.253-.163.241-.434 0-.61l-7.06-4.369a1.043 1.043 0 0 0-.974 0l-6.099 3.785c-.266.163-.253.434 0 .597l7.048 4.369Zm-84.015 52.601 6.099-3.771c.266-.163.253-.435 0-.611l-7.06-4.369a1.047 1.047 0 0 0-.488-.122c-.168 0-.335.042-.487.122l-6.111 3.772c-.253.163-.24.434 0 .611l7.06 4.368a1.034 1.034 0 0 0 .987 0Zm8.92-5.522 6.112-3.771c.253-.163.24-.435 0-.611l-7.048-4.369a1.01 1.01 0 0 0-.974 0l-6.111 3.772c-.254.163-.241.434 0 .611l7.06 4.368a1.037 1.037 0 0 0 .961 0Zm-17.84 11.044 6.099-3.771c.265-.163.253-.435 0-.611l-7.048-4.369a1.04 1.04 0 0 0-.974 0l-6.112 3.772c-.253.163-.24.434 0 .611l7.061 4.368a.994.994 0 0 0 .974 0Zm35.681-22.088 6.111-3.771c.253-.163.241-.435 0-.611l-7.06-4.369a1.043 1.043 0 0 0-.974 0l-6.099 3.786c-.266.162-.253.434 0 .597l7.06 4.368c.149.081.314.124.481.124.167 0 .332-.043.481-.124Zm-8.857 5.522 6.111-3.771c.253-.163.241-.435 0-.611l-7.174-4.369a1.01 1.01 0 0 0-.974 0l-6.099 3.772c-.266.163-.253.434 0 .597l7.06 4.382c.157.087.33.133.507.133.176 0 .349-.046.506-.133h.063Zm17.84-11.044 6.112-3.785c.253-.149.24-.421 0-.597l-7.061-4.369a1.004 1.004 0 0 0-.974 0l-6.2 3.704c-.266.163-.24.434 0 .597l7.048 4.369a1.004 1.004 0 0 0 1.012.081h.063Zm40.818-81.717a1.005 1.005 0 0 0 .974 0l6.112-3.786c.253-.149.24-.42 0-.597l-1.873-1.166a1.028 1.028 0 0 0-.974 0l-6.111 3.771c-.254.163-.241.435 0 .611l1.872 1.167Zm-43.892 30.391a1.005 1.005 0 0 0 .974 0l6.099-3.772c.265-.162.253-.434 0-.61l-7.061-4.369a1.04 1.04 0 0 0-.974 0l-6.111 3.772c-.253.163-.241.434 0 .61l7.073 4.369Zm17.84-11.044a1.043 1.043 0 0 0 .974 0l6.112-3.772c.253-.162.24-.434 0-.61l-7.061-4.369a1.005 1.005 0 0 0-.974 0l-6.149 3.772c-.266.163-.253.434 0 .61l7.098 4.369Zm-28.734 17.787a1.04 1.04 0 0 0 .974 0l6.099-3.785c.265-.163.253-.434 0-.597l-7.061-4.382a1.028 1.028 0 0 0-.974 0l-6.111 3.771c-.253.163-.241.435 0 .611l7.073 4.382Zm19.814-12.211a1.028 1.028 0 0 0 .974 0l6.111-3.771c.253-.163.241-.435 0-.611l-7.06-4.369a1.04 1.04 0 0 0-.974 0l-6.099 3.772c-.265.163-.253.434 0 .611l7.048 4.368Zm-37.718 23.255a1 1 0 0 0 .974 0l6.099-3.785c.266-.163.24-.434 0-.597l-7.048-4.369a1.005 1.005 0 0 0-.974 0l-6.111 3.786c-.253.149-.241.42 0 .597l7.06 4.368Zm8.92-5.522a1.043 1.043 0 0 0 .974 0l6.099-3.785c.266-.163.253-.434 0-.597l-7.048-4.369a1.005 1.005 0 0 0-.974 0l-6.111 3.786c-.253.149-.24.42 0 .596l7.06 4.369Zm45.866-31.599a1.035 1.035 0 0 0 .975 0l6.111-3.771c.253-.163.24-.435 0-.611l-1.885-1.167a1.043 1.043 0 0 0-.974 0l-6.099 3.772c-.266.163-.241.434 0 .611l1.872 1.166Zm26.774-16.579a.981.981 0 0 0 .961 0l6.112-3.786c.253-.162.24-.42 0-.597l-1.873-1.166a1 1 0 0 0-.974 0l-6.112 3.771c-.253.163-.24.435 0 .611l1.886 1.167Zm14.816 9.185a1.043 1.043 0 0 0 .974 0l6.112-3.785c.253-.163.24-.435 0-.597l-7.061-4.383a1.04 1.04 0 0 0-.974 0l-6.098 3.772c-.266.163-.241.434 0 .611l7.047 4.382Zm22.307 24.272 6.111-3.785c.253-.149.241-.421 0-.597l-7.06-4.369a1.04 1.04 0 0 0-.974 0l-6.099 3.786c-.266.163-.253.434 0 .597l7.06 4.368c.149.081.314.124.481.124.167 0 .332-.043.481-.124Zm-54.976-22.4a1.04 1.04 0 0 0 .974 0l6.111-3.771c.253-.163.241-.435 0-.611l-1.885-1.167a1.043 1.043 0 0 0-.974 0l-6.099 3.772c-.253.163-.24.434 0 .61l1.873 1.167Zm-72.627 48.165a.994.994 0 0 0 .974 0l6.099-3.785c.253-.163.24-.421 0-.597l-7.061-4.369a1.005 1.005 0 0 0-.974 0l-6.099 3.786c-.253.162-.24.42 0 .597l7.061 4.368Z"/><path fill="#263238" d="m299.164 383.779 66.807-41.367 41.122 25.453-66.82 41.367-41.109-25.453Z"/><path fill="#F5F5F5" d="M150.659 175.327 349.763 52.065c3.884-2.415 7.073-.434 7.073 4.383v165.348a8.226 8.226 0 0 1-.967 3.473 7.607 7.607 0 0 1-2.323 2.632L149.393 354.297c-1.809 1.113-3.289.204-3.289-2.035V183.779c.09-1.692.55-3.338 1.341-4.806a10.564 10.564 0 0 1 3.214-3.646Z"/><path fill="#F03E3D" d="M356.899 60.41v-3.962c0-4.817-3.189-6.784-7.073-4.383L150.659 175.327a10.583 10.583 0 0 0-3.214 3.646 11.437 11.437 0 0 0-1.341 4.807v7.096L356.899 60.409Z"/><path fill="#fff" d="M327.19 69.432a5.638 5.638 0 0 0-1.727 1.952 6.096 6.096 0 0 0-.715 2.58c0 1.668 1.088 2.347 2.442 1.506a5.618 5.618 0 0 0 1.72-1.947 6.058 6.058 0 0 0 .709-2.571c0-1.67-1.088-2.348-2.429-1.52ZM336.857 63.448a5.63 5.63 0 0 0-1.72 1.955 6.1 6.1 0 0 0-.71 2.577c0 1.668 1.089 2.333 2.43 1.506a5.638 5.638 0 0 0 1.727-1.953 6.096 6.096 0 0 0 .715-2.579c0-1.669-1.088-2.347-2.442-1.506ZM346.536 57.451a5.671 5.671 0 0 0-1.723 1.955 6.134 6.134 0 0 0-.719 2.577c0 1.669 1.101 2.347 2.442 1.506a5.612 5.612 0 0 0 1.725-1.946c.425-.785.67-1.666.717-2.572 0-1.669-1.101-2.347-2.442-1.52Z"/><path fill="#37474F" d="m195.269 271.829-7.747-4.797-18.973 35.238 7.747 4.797 18.973-35.238Z"/><path fill="#263238" d="m195.284 271.818-3.868-2.394-18.973 35.238 3.868 2.394 18.973-35.238Z"/><path fill="#11B5E4" d="M147.749 371.08c-3.531 6.58-20.245-3.867-16.727-10.352l43.588-72.899a.858.858 0 0 1 .514-.394.797.797 0 0 1 .625.096l8.756 5.427a.892.892 0 0 1 .39.525.96.96 0 0 1-.061.669l-37.085 76.928Z"/><path fill="#000" d="m147.748 371.08 37.073-76.928a.957.957 0 0 0 .061-.668.891.891 0 0 0-.39-.526l-3.986-2.469-42.5 81.012c3.871 2.049 8.148 2.551 9.742-.421Z" opacity=".1"/><path fill="#11B5E4" d="M275.921 199.464c0-.557 0-1.099-.076-1.642-.076-.543 0-1.072-.114-1.601-.114-.529 0-.706-.101-1.058a45.504 45.504 0 0 0-.354-2.714c-.064-.393-.127-.8-.203-1.194-.076-.393-.139-.746-.215-1.112a46.475 46.475 0 0 0-.708-2.917c-.14-.448-.266-.896-.405-1.357a1.305 1.305 0 0 1-.064-.204c-.151-.434-.291-.854-.442-1.261-.152-.407-.355-.95-.557-1.357-.203-.407-.278-.665-.443-.991a5.083 5.083 0 0 0-.329-.705 10.27 10.27 0 0 0-.417-.841c-.152-.272-.064-.136-.102-.19-.038-.055-.265-.489-.405-.733-.139-.244-.189-.312-.278-.461a24.697 24.697 0 0 0-2.176-3.107l-.405-.489-.342-.379c-.139-.163-.291-.313-.443-.475-.397-.448-.82-.87-1.265-1.262a8.868 8.868 0 0 0-.67-.57l-.696-.543a12.354 12.354 0 0 0-1.126-.787l-.304-.203h-.063l-17.929-11.098-.102-.068c-3.439-2.057-7.322-3.11-11.261-3.053-5.87 0-12.5 2.062-19.523 6.404-24.116 14.924-43.677 51.258-43.677 81.134 0 14.925 4.858 25.372 12.716 30.283h.076l17.941 11.085h.076l.215.122c.337.213.683.408 1.038.583.43.231.873.434 1.265.624.392.19.797.34 1.202.475l.646.204c.226.093.458.165.695.217.234.076.47.139.709.19.17.053.343.094.519.122.303.068.632.136.949.176a.598.598 0 0 0 .215 0c.379.073.759.127 1.139.163 6.503.733 14.069-1.235 22.167-6.241 24.129-14.924 43.69-51.272 43.69-81.134-.063-.624-.063-1.33-.063-2.035Zm-29.266-21.125a44.545 44.545 0 0 1 1.379 11.397c0 26.348-17.979 59.697-39.223 72.912a36.646 36.646 0 0 1-9.958 4.437 45.208 45.208 0 0 1-1.379-11.411c0-26.348 17.979-59.697 39.223-72.912a36.512 36.512 0 0 1 9.92-4.423h.038Z"/><path fill="#000" d="m200.725 285.618-17.422-10.772c-7.858-4.925-12.716-15.399-12.716-30.27 0-13.323 3.897-27.922 10.337-41.326l17.942 11.071c-6.453 13.404-10.338 28.003-10.338 41.327 0 14.598 4.631 24.923 12.197 29.97Z" opacity=".1"/><path fill="#fff" d="M275.921 199.464c0-.556 0-1.099-.076-1.642-.076-.542 0-1.072-.114-1.601-.114-.529 0-.705-.101-1.058a44.697 44.697 0 0 0-.354-2.714c-.063-.393-.127-.8-.203-1.194-.076-.393-.139-.746-.215-1.112a46.475 46.475 0 0 0-.708-2.917c-.139-.448-.266-.896-.405-1.357a1.222 1.222 0 0 1-.063-.203c-.152-.435-.291-.855-.443-1.262-.152-.407-.355-.95-.557-1.357-.202-.407-.278-.665-.443-.99a5.041 5.041 0 0 0-.329-.706 9.958 9.958 0 0 0-.417-.841c-.152-.271-.064-.136-.102-.19-.038-.054-.265-.488-.404-.733-.14-.244-.19-.312-.279-.461a24.697 24.697 0 0 0-2.176-3.107l-.405-.488-.342-.38c-.139-.163-.291-.312-.442-.475-.398-.448-.82-.869-1.266-1.262a9.357 9.357 0 0 0-.67-.57l-.696-.542a12.16 12.16 0 0 0-1.126-.787c-7.934-5.17-18.979-4.559-31.265 3.025-24.129 14.925-43.69 51.259-43.69 81.134 0 15.128 5.061 25.697 13.095 30.5.337.214.683.408 1.038.584.43.23.873.434 1.265.624.392.19.797.339 1.202.475l.645.203c.226.093.459.166.696.217.233.076.47.14.709.19.17.054.343.095.519.122.303.068.632.136.949.177a.597.597 0 0 0 .215 0c.379.072.759.126 1.138.163 6.504.732 14.07-1.235 22.168-6.241 24.129-14.925 43.69-51.272 43.69-81.135-.038-.678-.038-1.384-.038-2.089Zm-48.08 75.042c-5.416 3.351-10.629 5.115-15.083 5.115-8.363 0-12.209-6.119-13.918-12.536a45.202 45.202 0 0 1-1.379-11.411c0-26.348 17.98-59.697 39.224-72.912a36.515 36.515 0 0 1 9.958-4.423 20.639 20.639 0 0 1 5.061-.692c13.829 0 15.31 16.743 15.31 23.947.05 26.294-17.929 59.738-39.173 72.912Z" opacity=".4"/><path fill="#000" d="M267.064 201.594c0 26.348-17.967 59.697-39.224 72.912-5.415 3.351-10.628 5.115-15.082 5.115-8.363 0-12.21-6.119-13.918-12.537a36.586 36.586 0 0 0 9.958-4.436c21.282-13.174 39.224-46.564 39.224-72.913a44.631 44.631 0 0 0-1.379-11.396 20.591 20.591 0 0 1 5.061-.692c13.867.04 15.36 16.742 15.36 23.947Z" opacity=".1"/><path fill="#fff" d="M259.472 196.994c0 26.348-17.967 59.698-39.223 72.912-5.416 3.352-10.629 5.115-15.082 5.115a14.767 14.767 0 0 1-2.645-.23 21.346 21.346 0 0 1-3.656-7.707 45.15 45.15 0 0 1-1.38-11.41c0-26.348 17.98-59.697 39.224-72.912a36.515 36.515 0 0 1 9.958-4.423 20.598 20.598 0 0 1 5.061-.692c.89-.003 1.779.075 2.657.23 4.378 5.522 5.086 14.382 5.086 19.117Z" opacity=".7"/><path fill="#E6E6E6" d="M290.054 169.548v30.038c0 2.253 1.481 3.162 3.29 2.036L476.936 87.966a7.612 7.612 0 0 0 2.323-2.632c.572-1.061.903-2.25.966-3.474V51.781c0-2.252-1.48-3.161-3.289-2.035L293.344 163.402a7.624 7.624 0 0 0-2.331 2.651 8.26 8.26 0 0 0-.959 3.495Z"/><path fill="#BA68C8" d="m293.344 163.401 32.695-20.229v38.179l-32.695 20.229c-1.81 1.126-3.29.217-3.29-2.035v-29.998a8.26 8.26 0 0 1 .959-3.495 7.633 7.633 0 0 1 2.331-2.651Z"/><path fill="#fff" d="M315.221 159.833c-2.063-1.275-4.669-1.072-7.339.584-2.537 1.743-4.648 4.112-6.156 6.909a21.315 21.315 0 0 0-2.511 9.168c-.089 2.092.526 4.148 1.733 5.794l-3.517 6.458c-.229.462-.285 1-.155 1.505.129.504.433.937.851 1.208.29.175.616.268.949.272.333 0 .661-.094.949-.273.289-.178.529-.435.696-.745l3.479-6.458a6.33 6.33 0 0 0 1.139.122 8.411 8.411 0 0 0 4.403-1.357c2.533-1.747 4.639-4.117 6.145-6.914a21.38 21.38 0 0 0 2.51-9.163c.037-3.297-1.101-5.821-3.176-7.11Zm-7.339 19.673a2.826 2.826 0 0 1-1.683.953 2.722 2.722 0 0 1-1.871-.379 3.04 3.04 0 0 1-1.243-1.546 3.308 3.308 0 0 1-.074-2.04 17.13 17.13 0 0 1 2.01-7.127 15.865 15.865 0 0 1 4.759-5.423 4.891 4.891 0 0 1 2.531-.855c.37-.015.738.079 1.062.272.477.436.842.995 1.063 1.623.222.629.291 1.307.203 1.972a17.158 17.158 0 0 1-2.005 7.126 15.878 15.878 0 0 1-4.752 5.424Z"/></svg>